<ttFont>
          <CharString index="0">
            612 278 -107 callgsubr
            return
          </CharString>
          <CharString index="1">
            402 -38 callgsubr
            382 225 rmoveto
            292 -149 111 -233 -90 callgsubr
            233 233 149 111 292 vhcurveto
            return
          </CharString>
          <CharString index="2">
            310 570 -105 callgsubr
            return
          </CharString>
          <CharString index="3">
            159 90 50 0 hvcurveto
            160 vlineto
            -16 -48 -76 -16 -88 hhcurveto
            -70 -25 24 48 hvcurveto
            6 324 72 vlineto
            126 -61 130 -205 vhcurveto
            -178 vmoveto
            -79 callsubr
            hvcurveto
            return
          </CharString>
          <CharString index="4">
            rmoveto
            -43 callgsubr
            -91 callgsubr
            -76 callsubr
            return
          </CharString>
          <CharString index="5">
            731 -37 callsubr
            164 -353 -164 40 -386 hlineto
            -92 callsubr
            386 40 164 -380 -164 60 -335 vlineto
            -215 129 -78 199 196 125 78 215 vhcurveto
            return
          </CharString>
          <CharString index="6">
            -49 callsubr
            -59 callgsubr
            208 vstem
            -105 callsubr
            return
          </CharString>
          <CharString index="7">
            -99 callsubr
            185 return
          </CharString>
          <CharString index="8">
            -185 -117 -97 -195 -195 117 -97 return
          </CharString>
          <CharString index="9">
            487 -44 callsubr
            -685 -85 callgsubr
            685 -89 callgsubr
            return
          </CharString>
          <CharString index="10">
            -68 callsubr
            -79 callsubr
            vhcurveto
            return
          </CharString>
          <CharString index="11">
            -97 callsubr
            -100 -39 callsubr
            return
          </CharString>
          <CharString index="12">
            -172 vlineto
            15 66 87 14 79 hhcurveto
            75 17 -20 -38 hvcurveto
            -249 -111 -68 -124 return
          </CharString>
          <CharString index="13">
            87 -42 callgsubr
            -50 callgsubr
            63 -1 callgsubr
            -102 callsubr
            return
          </CharString>
          <CharString index="14">
            -54 callgsubr
            63 111 -94 callgsubr
            return
          </CharString>
          <CharString index="15">
            -70 callgsubr
            -71 callsubr
            return
          </CharString>
          <CharString index="16">
            rmoveto
            -68 54 -54 68 67 55 54 68 67 -55 55 -67 -68 -54 -55 -67 vhcurveto
            82 hmoveto
            21 17 18 23 21 18 -18 -21 -23 -18 -17 -21 -23 -17 17 23 vhcurveto
            endchar
          </CharString>
          <CharString index="17">
            24 614 rmoveto
            60 -450 -60 -81 callgsubr
            hlineto
            return
          </CharString>
          <CharString index="18">
            -149 -111 -292 -292 149 -111 return
          </CharString>
          <CharString index="19">
            -36 callsubr
            -78 callgsubr
            return
          </CharString>
          <CharString index="20">
            rmoveto
            27 -214 vlineto
            -109 -152 rlineto
            -15 160 vlineto
            endchar
          </CharString>
          <CharString index="21">
            -30 callsubr
            63 -1 callgsubr
            -103 callgsubr
            return
          </CharString>
          <CharString index="22">
            160 vmoveto
            -83 callsubr
            return
          </CharString>
          <CharString index="23">
            hstem
            -4 callsubr
            vstem
            -99 callgsubr
            -42 vlineto
            -68 -36 -16 -72 -82 -73 7 12 -62 vhcurveto
            13 callsubr
            0 104 -33 150 197 104 95 197 vhcurveto
            500 -93 callgsubr
            return
          </CharString>
          <CharString index="24">
            -43 -22 -21 -39 -38 -17 9 23 32 45 6 71 vhcurveto
            return
          </CharString>
          <CharString index="25">
            -14 -71 callgsubr
            return
          </CharString>
          <CharString index="26">
            -274 -6 callsubr
            return
          </CharString>
          <CharString index="27">
            -64 callsubr
            450 -18 callsubr
            return
          </CharString>
          <CharString index="28">
            38 20 -19 -45 return
          </CharString>
          <CharString index="29">
            4 392 -87 callgsubr
            return
          </CharString>
          <CharString index="30">
            rmoveto
            160 15 hlineto
            -109 152 rlineto
            -214 -27 hlineto
            endchar
          </CharString>
          <CharString index="31">
            -302 vlineto
            -52 -23 -22 -45 vhcurveto
            return
          </CharString>
          <CharString index="32">
            vlineto
            -97 callsubr
            return
          </CharString>
          <CharString index="33">
            22 45 45 23 -22 -52 return
          </CharString>
          <CharString index="34">
            rmoveto
            -184 149 -149 184 184 149 149 184 184 -149 149 -184 -184 -149 -149 -184 vhcurveto
            105 hmoveto
            126 101 102 127 126 102 -102 -126 -127 -102 -101 -126 -127 -101 101 127 vhcurveto
            endchar
          </CharString>
          <CharString index="35">
            70 77 -48 68 hhcurveto
            97 16 68 103 hvcurveto
            -56 hlineto
            -15 -9 -20 -30 vhcurveto
            return
          </CharString>
          <CharString index="36">
            -38 -20 19 45 vhcurveto
            return
          </CharString>
          <CharString index="37">
            252 328 rmoveto
            -38 callsubr
            0 -92 62 -138 -99 callsubr
            186 132 91 39 0 vhcurveto
            -16 callsubr
            -64 -25 29 49 hvcurveto
            return
          </CharString>
          <CharString index="38">
            286 -111 rmoveto
            186 111 -186 hlineto
            endchar
          </CharString>
          <CharString index="39">
            45 20 19 38 return
          </CharString>
          <CharString index="40">
            -35 callgsubr
            365 164 -91 97 hlineto
            96 38 35 88 49 44 -9 0 vhcurveto
            173 vlineto
            return
          </CharString>
          <CharString index="41">
            -101 71 -55 114 96 54 50 32 25 vhcurveto
            return
          </CharString>
          <CharString index="42">
            49 hlineto
            hintmask 10110000
            -19 callsubr
            hintmask 01110000
            -35 callsubr
            return
          </CharString>
          <CharString index="43">
            -164 400 -32 callsubr
            return
          </CharString>
          <CharString index="44">
            32 -25 -54 50 -76 hhcurveto
            -138 -67 -108 -184 -184 67 -108 138 76 54 50 32 25 hvcurveto
            return
          </CharString>
          <CharString index="45">
            -32 25 54 -50 76 hhcurveto
            138 67 108 184 184 -67 108 -138 -76 -54 -50 -32 -25 hvcurveto
            return
          </CharString>
          <CharString index="46">
            rmoveto
            -131 hlineto
            -116 -192 rlineto
            -47 vlineto
            116 -192 rlineto
            131 hlineto
            -79 208 rlineto
            15 vlineto
            return
          </CharString>
          <CharString index="47">
            -38 -28 6 0 hvcurveto
            -100 vlineto
            0 43 -18 67 75 59 41 72 42 -21 30 -35 21 vhcurveto
            33 26 15 32 37 vvcurveto
            59 -52 42 -74 -64 -43 -21 0 vhcurveto
            -93 vlineto
            0 28 4 35 30 5 -10 -13 vhcurveto
            return
          </CharString>
          <CharString index="48">
            116 230 return
          </CharString>
          <CharString index="49">
            hstem
            105 164 rmoveto
            -43 -48 11 0 hvcurveto
            -168 vlineto
            0 52 -21 96 164 134 77 204 vhcurveto
            347 -18 callsubr
            -451 -164 111 -356 vlineto
            -67 -30 -27 -45 vhcurveto
            return
          </CharString>
          <CharString index="50">
            556 -46 callsubr
            return
          </CharString>
          <CharString index="51">
            rmoveto
            -96 callsubr
            -38 -20 19 45 vhcurveto
            endchar
          </CharString>
          <CharString index="52">
            rlineto
            35 164 -302 -164 35 hlineto
            -59 -155 3 callsubr
            -59 155 rlineto
            35 hlineto
            return
          </CharString>
          <CharString index="53">
            -14 -53 callgsubr
            return
          </CharString>
          <CharString index="54">
            -21 callgsubr
            hintmask 11100100
            -75 callgsubr
            hintmask 11001000
            -55 callgsubr
          </CharString>
          <CharString index="55">
            rmoveto
            280 104 -119 hlineto
            66 56 43 61 65 vvcurveto
            65 -50 43 -84 -80 -49 -27 0 vhcurveto
            -96 vlineto
            0 48 13 33 22 14 -8 -22 -53 -124 -97 0 vhcurveto
            return
          </CharString>
          <CharString index="56">
            -164 164 return
          </CharString>
          <CharString index="57">
            hmoveto
            -78 callgsubr
            164 hlineto
            return
          </CharString>
          <CharString index="58">
            -46 callgsubr
            41 167 return
          </CharString>
          <CharString index="59">
            164 178 114 158 164 return
          </CharString>
          <CharString index="60">
            -450 -88 callsubr
            return
          </CharString>
          <CharString index="61">
            rmoveto
            -81 callsubr
            return
          </CharString>
          <CharString index="62">
            -42 callgsubr
            78 80 70 178 return
          </CharString>
          <CharString index="63">
            14 callgsubr
            224 302 return
          </CharString>
          <CharString index="64">
            228 164 return
          </CharString>
          <CharString index="65">
            63 32 -8 callgsubr
            464 746 -8 callsubr
            return
          </CharString>
          <CharString index="66">
            rmoveto
            57 -170 hlineto
            hintmask 11111001
            -47 -107 hlineto
            hintmask 11110101
            229 107 hlineto
            hintmask 11111001
            -24 callgsubr
          </CharString>
          <CharString index="67">
            rmoveto
            -9 hlineto
            -62 65 rlineto
            -149 -15 hlineto
            117 -152 rlineto
            197 hlineto
            117 152 rlineto
            15 -149 vlineto
            endchar
          </CharString>
          <CharString index="68">
            vlineto
            -70 callgsubr
            return
          </CharString>
          <CharString index="69">
            45 21 19 37 39 19 -19 -45 vhcurveto
            -18 172 198 vlineto
            return
          </CharString>
          <CharString index="70">
            -30 callgsubr
            60 return
          </CharString>
          <CharString index="71">
            -44 -164 return
          </CharString>
          <CharString index="72">
            67 102 rlineto
            128 -140 vlineto
            return
          </CharString>
          <CharString index="73">
            8 -26 callsubr
            return
          </CharString>
          <CharString index="74">
            -36 callsubr
            274 192 24 hlineto
            103 -192 rlineto
            245 164 -43 hlineto
            -96 133 85 95 rlineto
            return
          </CharString>
          <CharString index="75">
            164 -60 return
          </CharString>
          <CharString index="76">
            0 -29 14 -52 -69 -41 -45 -38 -18 vhcurveto
            -10 3 rlineto
            return
          </CharString>
          <CharString index="77">
            106 0 11 callsubr
            122 11 callsubr
            return
          </CharString>
          <CharString index="78">
            230 -59 callsubr
            return
          </CharString>
          <CharString index="79">
            rmoveto
            -49 hlineto
            hintmask 01110000
            43 102 rlineto
            -67 hlineto
            hintmask 10110000
            -11 callsubr
            return
          </CharString>
          <CharString index="80">
            172 -129 53 -155 50 vhcurveto
            -41 13 -21 7 23 vvcurveto
            28 18 10 44 vhcurveto
            return
          </CharString>
          <CharString index="81">
            244 116 return
          </CharString>
          <CharString index="82">
            44 178 228 11 callgsubr
            178 hstemhm
            12 -28 callgsubr
            return
          </CharString>
          <CharString index="83">
            136 -98 98 -98 134 -1 -20 hstemhm
            return
          </CharString>
          <CharString index="84">
            164 228 11 callgsubr
            178 return
          </CharString>
          <CharString index="85">
            rmoveto
            15 13 22 31 vhcurveto
            return
          </CharString>
          <CharString index="86">
            58 vlineto
            43 25 -22 -52 hvcurveto
            1 callgsubr
          </CharString>
          <CharString index="87">
            611 167 hstem
            return
          </CharString>
          <CharString index="88">
            -43 -102 rlineto
            67 hlineto
            return
          </CharString>
          <CharString index="89">
            60 164 return
          </CharString>
          <CharString index="90">
            107 275 -20 hstemhm
            7 -23 callgsubr
            return
          </CharString>
          <CharString index="91">
            157 vlineto
            -10 -61 -67 -8 -65 hhcurveto
            return
          </CharString>
          <CharString index="92">
            164 -40 hlineto
            return
          </CharString>
          <CharString index="93">
            0 -23 callsubr
            41 12 callgsubr
            return
          </CharString>
          <CharString index="94">
            62 230 return
          </CharString>
          <CharString index="95">
            -453 -306 -21 1267 -20 hstem
            62 131 vstem
            return
          </CharString>
          <CharString index="96">
            -67 -102 rlineto
            -128 140 vlineto
            return
          </CharString>
          <CharString index="97">
            -52 -23 -22 -45 -37 callgsubr
            return
          </CharString>
          <CharString index="98">
            82 -21 431 -20 hstem
            return
          </CharString>
          <CharString index="99">
            rlineto
            32 -142 vlineto
            return
          </CharString>
          <CharString index="100">
            60 -450 -60 return
          </CharString>
          <CharString index="101">
            -164 44 return
          </CharString>
          <CharString index="102">
            hstem
            395 778 rmoveto
            -383 -164 36 hlineto
            return
          </CharString>
          <CharString index="103">
            46 -29 callsubr
            return
          </CharString>
          <CharString index="104">
            31 24 -12 -38 hvcurveto
            210 179 hlineto
            0 return
          </CharString>
          <CharString index="105">
            187 99 186 return
          </CharString>
          <CharString index="106">
            244 -208 208 -142 142 return
          </CharString>
          <CharString index="107">
            -383 -265 -21 1182 -20 hstem
            return
          </CharString>
          <CharString index="108">
            -59 callsubr
            hintmask 10111100
            return
          </CharString>
          <CharString index="109">
            230 116 244 return
          </CharString>
          <CharString index="110">
            rlineto
            -10 hlineto
            return
          </CharString>
          <CharString index="111">
            -59 callgsubr
            244 vstem
            return
          </CharString>
          <CharString index="112">
            -358 -208 -21 1117 -20 hstem
            return
          </CharString>
          <CharString index="113">
            -16 -33 callgsubr
            228 178 return
          </CharString>
          <CharString index="114">
            165 hstem
            28 613 rmoveto
            60 return
          </CharString>
          <CharString index="115">
            hstemhm
            8 -28 callgsubr
            return
          </CharString>
          <CharString index="116">
            167 89 166 return
          </CharString>
          <CharString index="117">
            11 callsubr
            hstem
            return
          </CharString>
          <CharString index="118">
            164 164 return
          </CharString>
          <CharString index="119">
            rmoveto
            164 return
          </CharString>
          <CharString index="120">
            -164 vlineto
            return
          </CharString>
        <CharString name=".notdef">
          74 -222 104 792 104 hstem
          88 113 380 113 vstem
          88 -222 rmoveto
          606 1000 -606 hlineto
          493 -154 rmoveto
          -693 vlineto
          -140 346 rlineto
          -240 -346 rmoveto
          693 vlineto
          139 -347 rlineto
          -58 397 rmoveto
          218 hlineto
          -109 -271 rlineto
          109 -521 rmoveto
          -218 hlineto
          109 270 rlineto
          endchar
        </CharString>
        <CharString name=".null">
          endchar
        </CharString>
        <CharString name="A">
          -106 callgsubr
          endchar
        </CharString>
        <CharString name="AE">
          418 -408 21 vstem
          882 -44 callsubr
          -809 hlineto
          -259 -614 rlineto
          -40 -164 377 -32 callsubr
          hlineto
          29 80 rlineto
          137 -80 -50 -164 675 -89 callgsubr
          -411 -23 rmoveto
          10 -231 -95 hlineto
          endchar
        </CharString>
        <CharString name="Aacute">
          -106 callgsubr
          305 576 -88 callgsubr
        </CharString>
        <CharString name="Acircumflex">
          -106 callgsubr
          149 491 -96 callgsubr
        </CharString>
        <CharString name="Adieresis">
          -106 callgsubr
          -179 491 -83 callgsubr
        </CharString>
        <CharString name="Agrave">
          -106 callgsubr
          -25 491 -72 callgsubr
        </CharString>
        <CharString name="Aring">
          -106 callgsubr
          -62 564 -91 callsubr
        </CharString>
        <CharString name="Atilde">
          -106 callgsubr
          -142 486 -21 callgsubr
          -75 callgsubr
          -55 callgsubr
        </CharString>
        <CharString name="B">
          87 -33 callgsubr
          172 114 10 callsubr
          26 -16 callgsubr
          469 hlineto
          153 131 52 150 150 -125 25 -60 6 hvcurveto
          10 vlineto
          55 11 111 48 129 vvcurveto
          129 -101 68 -164 vhcurveto
          -469 hlineto
          340 -328 rmoveto
          -69 callgsubr
          -54 -286 rmoveto
          172 61 vlineto
          -79 callsubr
          hvcurveto
          -44 -39 callsubr
          vhcurveto
          endchar
        </CharString>
        <CharString name="C">
          30 -10 callgsubr
          468 240 vstem
          468 238 rmoveto
          -10 callsubr
          vhcurveto
          -91 callgsubr
          -72 240 250 vlineto
          0 -112 74 -196 -90 callgsubr
          235 194 112 74 0 vhcurveto
          259 -240 vlineto
          endchar
        </CharString>
        <CharString name="CR">
          endchar
        </CharString>
        <CharString name="Ccedilla">
          30 -247 2 callgsubr
          -13 -53 callgsubr
          hstemhm
          340 3 callgsubr
          -68 240 hintmask 10011001
          468 238 rmoveto
          -10 callsubr
          vhcurveto
          -91 callgsubr
          -72 240 250 vlineto
          0 -112 74 -196 -90 callgsubr
          235 194 112 74 0 vhcurveto
          259 -240 vlineto
          hintmask 10101100
          -128 -427 rmoveto
          44 hlineto
          hintmask 10101010
          -62 callgsubr
          hintmask 01011100
          10 callgsubr
          hintmask 10101100
          39 -95 vlineto
          endchar
        </CharString>
        <CharString name="D">
          118 -33 callgsubr
          449 7 callsubr
          -449 -40 callgsubr
          450 -21 callsubr
        </CharString>
        <CharString name="E">
          -54 callgsubr
          -94 callgsubr
          endchar
        </CharString>
        <CharString name="Eacute">
          -93 callsubr
          157 312 -88 callgsubr
        </CharString>
        <CharString name="Ecircumflex">
          -93 callsubr
          1 227 -96 callgsubr
        </CharString>
        <CharString name="Edieresis">
          -54 callgsubr
          63 111 hstemhm
          160 -2 callsubr
          -145 224 hintmask 11111010
          -98 callsubr
          -327 227 -44 callgsubr
          hintmask 11111100
          -69 callsubr
        </CharString>
        <CharString name="Egrave">
          -93 callsubr
          -173 227 -72 callgsubr
        </CharString>
        <CharString name="Eth">
          118 -33 callgsubr
          147 164 138 7 callsubr
          -138 -71 -164 71 -147 -40 callgsubr
          147 61 164 -61 139 -21 callsubr
        </CharString>
        <CharString name="Euro">
          15 -42 callgsubr
          112 79 76 79 104 178 hstem
          527 -30 callgsubr
          74 81 -25 0 hvcurveto
          27 153 rlineto
          0 -95 50 -144 -205 -142 -80 -202 -38 vhcurveto
          -73 -79 64 hlineto
          -1 -14 0 -14 -14 vvcurveto
          -12 0 -11 1 -11 vhcurveto
          -64 -79 71 hlineto
          -208 34 135 -82 197 hhcurveto
          147 93 60 0 hvcurveto
          153 vlineto
          0 -104 -35 -58 -83 -41 37 75 -11 vhcurveto
          235 hlineto
          14 79 rlineto
          -252 76 265 hlineto
          14 79 rlineto
          -276 hlineto
          69 12 43 35 80 hhcurveto
          endchar
        </CharString>
        <CharString name="F">
          -64 -33 callgsubr
          170 114 166 164 hstem
          459 177 vstem
          459 519 rmoveto
          177 259 -608 -85 callgsubr
          471 164 -131 170 151 114 -151 166 91 hlineto
          endchar
        </CharString>
        <CharString name="G">
          84 -42 callgsubr
          86 149 215 178 hstem
          480 250 vstem
          426 250 rmoveto
          54 -7 hlineto
          -57 -23 -22 -50 -50 -23 22 57 vhcurveto
          292 vlineto
          57 23 22 50 50 23 -22 -57 vhcurveto
          -47 250 239 vlineto
          0 -120 65 -203 -238 -89 callsubr
          240 201 120 64 0 vhcurveto
          200 50 149 -354 vlineto
          endchar
        </CharString>
        <CharString name="H">
          160 -33 callgsubr
          165 133 152 164 hstem
          463 -30 callgsubr
          51 -152 -150 152 51 164 -391 -85 callgsubr
          391 164 -51 165 150 -165 -51 -164 391 -32 callsubr
          450 -18 callsubr
          -391 hlineto
          endchar
        </CharString>
        <CharString name="I">
          -270 -79 callgsubr
          hstem
          -90 callsubr
          endchar
        </CharString>
        <CharString name="IJ">
          226 -82 callsubr
          450 164 hstemhm
          hintmask 10100000
          530 164 rmoveto
          -41 -43 11 0 hvcurveto
          -168 vlineto
          0 48 -21 90 155 133 82 210 vhcurveto
          336 -18 callsubr
          -441 -164 101 -356 vlineto
          -65 -26 -29 -36 vhcurveto
          -506 450 rmoveto
          -7 callsubr
          hlineto
          hintmask 01100000
          -81 callgsubr
          vlineto
          endchar
        </CharString>
        <CharString name="Iacute">
          -77 callgsubr
          456 148 -88 callgsubr
        </CharString>
        <CharString name="Icircumflex">
          -77 callgsubr
          300 63 -96 callgsubr
        </CharString>
        <CharString name="Idieresis">
          -270 -79 callgsubr
          63 -1 callgsubr
          -4 -2 callsubr
          vstem
          -90 callsubr
          -28 63 -83 callgsubr
        </CharString>
        <CharString name="Igrave">
          -77 callgsubr
          126 63 -72 callgsubr
        </CharString>
        <CharString name="Itilde">
          -270 -79 callgsubr
          57 -24 callsubr
          hintmask 11010100
          -90 callsubr
          9 58 -53 callsubr
        </CharString>
        <CharString name="J">
          -186 -42 callgsubr
          -50 callgsubr
          -58 callsubr
          endchar
        </CharString>
        <CharString name="Jcircumflex">
          -186 -42 callgsubr
          -50 callgsubr
          63 111 -58 callsubr
          287 677 -96 callgsubr
        </CharString>
        <CharString name="K">
          126 -35 21 vstem
          807 614 12 callsubr
          -258 vlineto
          -183 -269 rlineto
          269 -340 -85 callgsubr
          340 274 vlineto
          158 -274 rlineto
          298 -15 callsubr
          -172 248 157 202 rlineto
          endchar
        </CharString>
        <CharString name="L">
          -11 callgsubr
          26 -32 callgsubr
          endchar
        </CharString>
        <CharString name="Ldotaccent">
          -64 -33 callgsubr
          156 152 142 164 hstemhm
          435 199 -156 156 hintmask 11110000
          5 -32 callgsubr
          hintmask 11101000
          473 -458 rmoveto
          -29 callgsubr
          endchar
        </CharString>
        <CharString name="Lslash">
          -11 callgsubr
          591 452 rmoveto
          121 vlineto
          -603 -230 rlineto
          -121 vlineto
          38 392 rmoveto
          -73 callgsubr
          629 256 -199 -92 -90 450 92 164 -432 hlineto
          endchar
        </CharString>
        <CharString name="M">
          495 -79 callgsubr
          hstem
          84 230 vstem
          24 -16 callgsubr
          350 -32 callsubr
          397 hlineto
          226 -561 rlineto
          108 hlineto
          199 559 rlineto
          -395 -60 -80 callsubr
          -461 vlineto
          -110 -343 -114 343 rlineto
          -478 hlineto
          endchar
        </CharString>
        <CharString name="N">
          244 -79 callgsubr
          -67 callgsubr
          endchar
        </CharString>
        <CharString name="Nacute">
          244 -79 callgsubr
          63 111 -67 callgsubr
          149 148 -88 callgsubr
        </CharString>
        <CharString name="Ntilde">
          244 -79 callgsubr
          57 -24 callsubr
          82 230 284 154 -94 230 hintmask 1110011100000000
          596 -30 callgsubr
          hintmask 1110011010000000
          60 -238 hlineto
          -263 402 rlineto
          -371 -85 callgsubr
          350 -32 callsubr
          287 hlineto
          293 -451 rlineto
          281 614 -18 callsubr
          hlineto
          hintmask 1101011100000000
          -350 hlineto
          -298 58 -21 callgsubr
          hintmask 1110011100000000
          -75 callgsubr
          hintmask 1100101100000000
          -55 callgsubr
        </CharString>
        <CharString name="O">
          90 -10 callgsubr
          -106 callsubr
          endchar
        </CharString>
        <CharString name="OE">
          407 -14 178 -164 -48 callsubr
          -164 178 hstemhm
          871 224 hintmask 10110100
          871 -44 callsubr
          -563 hlineto
          hintmask 10101100
          9 -40 -43 5 -47 hhcurveto
          -90 callgsubr
          233 hvcurveto
          hintmask 01110100
          47 44 5 9 40 hvcurveto
          562 -89 callgsubr
          -469 -450 -103 callsubr
          endchar
        </CharString>
        <CharString name="Oacute">
          90 -54 callsubr
          49 -1 callgsubr
          -106 callsubr
          -130 537 -88 callgsubr
        </CharString>
        <CharString name="Ocircumflex">
          90 -54 callsubr
          49 -1 callgsubr
          -106 callsubr
          -286 452 -96 callgsubr
        </CharString>
        <CharString name="Odieresis">
          90 -54 callsubr
          49 -1 callgsubr
          170 -2 callsubr
          vstem
          -106 callsubr
          -614 452 -83 callgsubr
        </CharString>
        <CharString name="Ograve">
          90 -54 callsubr
          49 -1 callgsubr
          -106 callsubr
          -460 452 -72 callgsubr
        </CharString>
        <CharString name="Oslash">
          90 -93 -21 100 -53 callgsubr
          87 -20 hstem
          282 -82 rmoveto
          -32 71 vlineto
          160 961 rlineto
          32 -71 vlineto
          -40 -715 -103 callsubr
          382 225 rmoveto
          292 -149 111 -233 -90 callgsubr
          233 233 149 111 292 vhcurveto
          endchar
        </CharString>
        <CharString name="Otilde">
          90 -54 callsubr
          43 -24 callsubr
          hintmask 11010100
          -106 callsubr
          -577 447 -53 callsubr
        </CharString>
        <CharString name="P">
          46 -33 callgsubr
          144 142 10 callsubr
          368 450 12 callsubr
          34 vlineto
          -79 callsubr
          hvcurveto
          -36 vlineto
          -45 -21 -19 -37 vhcurveto
          62 -286 rmoveto
          -96 144 109 hlineto
          164 101 64 171 171 -101 64 -164 hvcurveto
          -449 -85 callgsubr
          436 hlineto
          endchar
        </CharString>
        <CharString name="Q">
          104 -78 242 450 178 hstem
          398 -38 callgsubr
          382 255 rmoveto
          254 -149 119 -233 -233 -149 -111 -292 -119 24 -90 43 -62 vhcurveto
          -176 128 205 -20 380 hhcurveto
          242 -119 vlineto
          -6 10 rlineto
          32 30 77 67 148 vvcurveto
          endchar
        </CharString>
        <CharString name="R">
          -30 callsubr
          hstem
          cntrmask 11100000
          -103 callgsubr
          endchar
        </CharString>
        <CharString name="Racute">
          -86 callsubr
          220 476 -88 callgsubr
        </CharString>
        <CharString name="Rcaron">
          -86 callsubr
          -20 445 -36 callgsubr
        </CharString>
        <CharString name="Rcommaaccent">
          106 -312 -21 333 11 callsubr
          122 10 callsubr
          342 150 vstem
          -103 callgsubr
          -78 -670 -65 callgsubr
        </CharString>
        <CharString name="S">
          -22 -14 193 370 243 -193 193 hstemhm
          445 210 -210 229 hintmask 10101000
          313 179 rmoveto
          -2 callgsubr
          121 -54 192 214 116 86 171 -27 callsubr
          hintmask 11010000
          -3 callsubr
          -99 64 -193 -256 -85 -92 -149 -25 callgsubr
          endchar
        </CharString>
        <CharString name="T">
          62 -33 callgsubr
          372 242 -51 callsubr
          hstemhm
          16 172 408 172 hintmask 11011000
          16 536 rmoveto
          172 hlineto
          hintmask 10111000
          78 64 -450 -70 -164 420 164 -70 450 64 vlineto
          hintmask 11011000
          -78 172 242 -752 vlineto
          endchar
        </CharString>
        <CharString name="Thorn">
          54 -33 callgsubr
          271 134 45 164 hstem
          28 -16 callgsubr
          436 164 -96 65 118 hlineto
          135 101 42 133 127 -101 38 -135 hvcurveto
          -118 45 -18 callsubr
          -400 hlineto
          340 -447 rmoveto
          104 24 vlineto
          28 20 -13 -31 hvcurveto
          -16 vlineto
          -31 -21 -13 -27 vhcurveto
          endchar
        </CharString>
        <CharString name="U">
          87 -42 callgsubr
          -50 callgsubr
          hstem
          -102 callsubr
          endchar
        </CharString>
        <CharString name="Uacute">
          -94 callsubr
          -61 647 -88 callgsubr
        </CharString>
        <CharString name="Ucircumflex">
          -94 callsubr
          -217 562 -96 callgsubr
        </CharString>
        <CharString name="Udieresis">
          87 -42 callgsubr
          -50 callgsubr
          63 -1 callgsubr
          186 176 116 180 vstem
          -102 callsubr
          -545 562 -83 callgsubr
        </CharString>
        <CharString name="Ugrave">
          -94 callsubr
          -391 562 -72 callgsubr
        </CharString>
        <CharString name="V">
          68 21 -21 614 164 hstem
          396 778 rmoveto
          -382 -164 40 hlineto
          159 -614 rlineto
          364 hlineto
          159 614 rlineto
          40 164 -332 -164 50 hlineto
          -69 -395 3 callsubr
          -69 395 rlineto
          50 hlineto
          endchar
        </CharString>
        <CharString name="W">
          549 21 -21 614 164 hstem
          542 hmoveto
          96 412 rlineto
          10 hlineto
          91 -412 rlineto
          349 hlineto
          129 614 rlineto
          40 164 -347 -164 65 hlineto
          -49 -375 3 callsubr
          -108 539 rlineto
          -288 hlineto
          -115 -539 3 callsubr
          -49 375 rlineto
          65 164 -397 -164 40 hlineto
          139 -614 rlineto
          endchar
        </CharString>
        <CharString name="X">
          118 -79 callgsubr
          hstem
          802 614 12 callsubr
          -278 vlineto
          -75 -232 rlineto
          -20 hlineto
          -74 232 rlineto
          -318 -164 40 hlineto
          107 -217 -116 -233 rlineto
          -40 -164 278 hlineto
          84 254 rlineto
          20 hlineto
          84 -254 rlineto
          318 -15 callsubr
          -117 234 107 216 rlineto
          endchar
        </CharString>
        <CharString name="Y">
          47 -79 callgsubr
          -5 callsubr
          199 -346 rlineto
          -104 -60 -64 callsubr
          104 vlineto
          193 346 -55 callsubr
          endchar
        </CharString>
        <CharString name="Yacute">
          47 -79 callgsubr
          63 111 -5 callsubr
          199 -346 rlineto
          -104 -60 -64 callsubr
          104 vlineto
          193 346 -55 callsubr
          275 312 -88 callgsubr
        </CharString>
        <CharString name="Z">
          -11 0 11 callgsubr
          246 286 246 -51 callsubr
          hstemhm
          37 199 248 199 hintmask 10101100
          22 144 rmoveto
          -144 661 vlineto
          hintmask 01101100
          246 -199 vlineto
          hintmask 10101100
          -82 -124 vlineto
          307 470 rlineto
          144 -630 -246 199 vlineto
          hintmask 10011100
          82 94 vlineto
          endchar
        </CharString>
        <CharString name="a">
          -76 callgsubr
          8 callsubr
          hintmask 01111100
          -104 callgsubr
          hintmask 10111100
          -66 callsubr
          hintmask 01111100
          -85 callsubr
          endchar
        </CharString>
        <CharString name="aacute">
          -101 callgsubr
          161 517 -87 callsubr
        </CharString>
        <CharString name="acircumflex">
          -101 callgsubr
          24 377 -98 callgsubr
        </CharString>
        <CharString name="acute">
          -429 -20 callsubr
          312 751 -87 callsubr
        </CharString>
        <CharString name="acute.cap">
          -412 -7 callgsubr
          343 926 -88 callgsubr
        </CharString>
        <CharString name="adieresis">
          -66 callgsubr
          -136 167 85 170 -170 230 hintmask 0111110010000000
          -104 callgsubr
          hintmask 1011110100000000
          -66 callsubr
          hintmask 0111110010000000
          -85 callsubr
          hintmask 1011101100000000
          -252 377 -92 callgsubr
        </CharString>
        <CharString name="ae">
          238 -42 callgsubr
          78 80 -80 92 58 178 hstemhm
          -34 callsubr
          242 116 208 hintmask 10111110
          668 570 rmoveto
          -63 -58 -15 -29 -48 hvcurveto
          28 -44 -59 16 -75 hhcurveto
          -159 -118 -35 0 hvcurveto
          -95 callsubr
          -101 71 -55 114 118 82 60 42 36 hvcurveto
          -68 50 83 -34 106 hhcurveto
          -104 callsubr
          hintmask 11011110
          -61 callgsubr
          -300 -164 rmoveto
          -83 callsubr
          endchar
        </CharString>
        <CharString name="agrave">
          -101 callgsubr
          -105 377 -77 callsubr
        </CharString>
        <CharString name="ampersand">
          79 -10 callgsubr
          428 210 vstem
          428 526 rmoveto
          210 192 hlineto
          0 -101 74 -187 -184 -136 -72 -131 -80 45 -50 67 -50 vhcurveto
          -76 -38 -71 -61 -100 vvcurveto
          -138 124 -86 230 121 79 33 37 49 vhcurveto
          73 -56 122 161 -90 68 9 33 rlineto
          58 167 -241 -18 hlineto
          -1 -16 -1 -16 -2 -16 -163 123 rcurveline
          -30 23 -35 22 30 vvcurveto
          31 18 -74 callsubr
          vhcurveto
          -68 -376 rmoveto
          -72 -21 18 34 28 16 23 25 13 hvcurveto
          127 -98 rlineto
          -11 -18 -27 -7 -30 hhcurveto
          endchar
        </CharString>
        <CharString name="aring">
          -76 callgsubr
          33 82 79 83 hstemhm
          8 244 -57 82 79 83 -71 230 hintmask 0111111001000000
          -104 callgsubr
          hintmask 1011111001000000
          -66 callsubr
          hintmask 0111111001000000
          -85 callsubr
          hintmask 1011110110000000
          -173 491 -91 callsubr
        </CharString>
        <CharString name="asciicircum">
          -295 543 -21 256 -20 hstem
          273 522 rmoveto
          126 15 hlineto
          -117 241 rlineto
          -151 hlineto
          -117 -241 rlineto
          -15 126 vlineto
          62 142 rlineto
          9 hlineto
          endchar
        </CharString>
        <CharString name="asciitilde">
          -90 228 146 -98 98 -98 145 hstemhm
          hintmask 01000000
          83 239 rmoveto
          14 15 23 55 vhcurveto
          hintmask 10000000
          119 51 -48 120 hhcurveto
          136 9 109 73 hvcurveto
          -56 hlineto
          -16 -11 -20 -54 vhcurveto
          hintmask 00100000
          -115 -49 47 -121 hhcurveto
          -138 -14 -113 -69 hvcurveto
          endchar
        </CharString>
        <CharString name="asterisk">
          -299 430 -21 369 -20 hstem
          265 761 rmoveto
          17 -120 -17 vlineto
          18 -94 -75 62 -12 7 -60 -103 11 -7 100 -33 -100 -33 -11 -9 60 -100 12 7 75 60 -18 -94 rlineto
          -15 120 15 vlineto
          -18 94 74 -60 11 -7 61 100 -12 9 -101 33 101 33 12 7 -61 103 -11 -7 -74 -62 rlineto
          endchar
        </CharString>
        <CharString name="at">
          440 -236 152 70 153 -153 168 278 138 72 150 hstemhm
          32 162 82 -28 callgsubr
          84 162 hintmask 1011111110000000
          520 348 rmoveto
          45 24 39 42 18 21 -4 -3 11 vhcurveto
          -230 vlineto
          -20 -14 -27 -21 -29 hhcurveto
          -28 -18 16 38 hvcurveto
          179 -268 rmoveto
          0 -67 -24 -132 -179 -127 84 229 246 166 167 244 219 127 -97 -204 vhcurveto
          hintmask 1101111110000000
          -127 -32 -75 -31 -11 -10 7 15 vhcurveto
          349 vlineto
          34 -75 -97 26 -84 hhcurveto
          -187 -147 -108 -227 -153 67 -96 129 92 65 60 43 30 hvcurveto
          -50 13 42 -53 106 hhcurveto
          140 152 114 263 261 -184 168 -303 -326 -267 -222 -355 -303 163 -148 289 124 91 31 0 hvcurveto
          endchar
        </CharString>
        <CharString name="atilde">
          -56 -14 178 -164 164 70 100 58 -5 callgsubr
          -34 callsubr
          230 hintmask 0111100111000000
          -104 callgsubr
          hintmask 1011100111000000
          -66 callsubr
          hintmask 0111010111000000
          -85 callsubr
          -200 388 -22 callsubr
          hintmask 1011100111000000
          -72 callsubr
          hintmask 1011001011000000
          -52 callgsubr
        </CharString>
        <CharString name="b">
          -44 -14 callgsubr
          62 2 callsubr
          hintmask 10111100
          292 778 -46 callsubr
          -450 -44 hlineto
          hintmask 01111100
          -164 274 68 vlineto
          hintmask 10111100
          -62 callsubr
          116 -260 rmoveto
          -92 callsubr
          -26 callgsubr
          endchar
        </CharString>
        <CharString name="backslash">
          -284 -130 -21 993 -20 hstem
          123 842 rmoveto
          -143 -32 hlineto
          320 -961 rlineto
          144 32 hlineto
          endchar
        </CharString>
        <CharString name="bar">
          -12 callsubr
          193 -327 rmoveto
          1267 -131 -1267 vlineto
          endchar
        </CharString>
        <CharString name="braceleft">
          -409 -226 -21 1011 89 hstemhm
          22 219 -189 165 -165 219 -193 139 hintmask 11100000
          22 249 rmoveto
          hintmask 11000100
          24 32 -15 -55 hvcurveto
          hintmask 11001000
          -118 -26 -45 -118 vvcurveto
          -136 128 -9 91 vhcurveto
          89 vlineto
          hintmask 11010000
          -24 -30 11 55 hvcurveto
          hintmask 11100000
          104 24 44 111 vvcurveto
          80 -34 37 -43 19 vhcurveto
          42 18 35 39 80 vvcurveto
          hintmask 11010000
          111 -24 44 104 vvcurveto
          hintmask 11001000
          54 27 11 27 vhcurveto
          89 vlineto
          -91 -128 -9 -135 hvcurveto
          hintmask 11000100
          -119 26 -45 -117 vvcurveto
          hintmask 11100000
          -56 -32 -14 -24 vhcurveto
          endchar
        </CharString>
        <CharString name="braceright">
          -409 -226 -21 1100 -20 hstemhm
          28 219 -189 11 callgsubr
          219 -194 139 -139 164 hintmask 11001000
          277 358 rmoveto
          hintmask 11000100
          -23 -32 14 56 hvcurveto
          hintmask 11100000
          117 25 45 119 vvcurveto
          135 -128 9 -91 vhcurveto
          -89 vlineto
          hintmask 11000100
          28 27 -11 -54 hvcurveto
          hintmask 11010000
          -104 -25 -44 -111 vvcurveto
          -80 36 -39 42 -18 vhcurveto
          -43 -19 -35 -37 -80 vvcurveto
          hintmask 11000010
          -111 25 -44 -104 vvcurveto
          hintmask 11100000
          -55 -30 -11 -25 vhcurveto
          -89 vlineto
          91 128 9 136 hvcurveto
          hintmask 11010000
          118 -25 45 118 vvcurveto
          hintmask 11001000
          55 32 15 23 vhcurveto
          endchar
        </CharString>
        <CharString name="bracketleft">
          0 callsubr
          44 168 vstem
          44 -263 rmoveto
          267 -23 12 129 -111 23 rlineto
          878 vlineto
          111 23 -12 129 -267 -23 rlineto
          endchar
        </CharString>
        <CharString name="bracketright">
          0 callsubr
          113 168 vstem
          281 873 rmoveto
          -267 23 -12 -129 111 -23 rlineto
          -878 vlineto
          -111 -23 12 -129 267 23 rlineto
          endchar
        </CharString>
        <CharString name="brokenbar">
          -12 callsubr
          62 208 rmoveto
          -535 131 535 vlineto
          198 vmoveto
          534 -131 -534 vlineto
          endchar
        </CharString>
        <CharString name="bullet">
          -365 270 -21 271 -20 hstem
          35 384 rmoveto
          -75 61 -60 76 74 62 60 75 76 -62 60 -74 -76 -61 -60 -76 vhcurveto
          endchar
        </CharString>
        <CharString name="c">
          -154 -39 callgsubr
          178 -59 callgsubr
          172 vstem
          -70 callsubr
          endchar
        </CharString>
        <CharString name="caron">
          -277 -20 callsubr
          220 713 -40 callsubr
        </CharString>
        <CharString name="caron.cap">
          -277 -7 callgsubr
          227 895 -36 callgsubr
        </CharString>
        <CharString name="ccedilla">
          -154 -246 2 callgsubr
          -39 callgsubr
          178 hstemhm
          8 244 -7 3 callgsubr
          -73 172 hintmask 1001110010000000
          -70 callsubr
          hintmask 1010101000000000
          -7 -349 rmoveto
          44 hlineto
          hintmask 1010110100000000
          -62 callgsubr
          hintmask 0101110100000000
          10 callgsubr
          hintmask 1010101000000000
          39 -95 vlineto
          endchar
        </CharString>
        <CharString name="cedilla">
          -141 -246 2 callgsubr
          hstemhm
          251 3 callgsubr
          hintmask 10110000
          251 -107 rmoveto
          44 hlineto
          hintmask 10101000
          -62 callgsubr
          hintmask 01010000
          10 callgsubr
          hintmask 10110000
          39 -95 vlineto
          endchar
        </CharString>
        <CharString name="cent">
          -154 -83 -21 761 -20 hstemhm
          8 244 -18 131 3 172 hintmask 11011000
          365 -104 rmoveto
          92 vlineto
          101 9 68 28 0 vvcurveto
          -16 callsubr
          hintmask 11101000
          -64 -25 29 49 hvcurveto
          86 vlineto
          -38 callsubr
          hintmask 11011000
          0 -68 46 -107 13 vhcurveto
          90 -131 -93 vlineto
          hintmask 11101000
          -141 -24 -85 -96 -166 vvcurveto
          hintmask 11011000
          -167 85 -95 141 -24 vhcurveto
          -96 vlineto
          endchar
        </CharString>
        <CharString name="circumflex">
          -277 -20 callsubr
          282 611 -98 callgsubr
        </CharString>
        <CharString name="circumflex.cap">
          -277 -7 callgsubr
          306 841 -96 callgsubr
        </CharString>
        <CharString name="colon">
          -464 -33 callgsubr
          161 164 hstem
          40 156 vstem
          40 325 rmoveto
          -20 callgsubr
          -489 vmoveto
          -20 callgsubr
          endchar
        </CharString>
        <CharString name="comma">
          7 callgsubr
          164 -20 -31 callgsubr
          endchar
        </CharString>
        <CharString name="commaaccent">
          -408 -312 -21 255 -20 hstem
          75 150 vstem
          75 -220 -65 callgsubr
        </CharString>
        <CharString name="copyright">
          6 126 105 69 62 -62 133 57 130 -62 62 67 105 hstemhm
          24 105 78 112 73 85 108 105 hintmask 1100111111000000
          392 389 rmoveto
          -19 -12 -8 -25 -24 -12 8 19 vhcurveto
          141 vlineto
          20 12 8 24 25 12 -8 -20 vhcurveto
          hintmask 1011011111000000
          -40 85 98 vlineto
          0 -43 32 -79 -91 -57 -46 -114 -115 57 -45 92 78 43 31 0 vhcurveto
          102 -85 vlineto
          -368 26 -73 callsubr
        </CharString>
        <CharString name="currency">
          -124 74 -21 45 123 212 123 45 -20 hstem
          79 143 141 143 vstem
          116 53 rmoveto
          66 66 rlineto
          -14 29 37 -7 44 hhcurveto
          44 37 7 14 29 hvcurveto
          67 -66 107 107 -80 79 rlineto
          6 26 4 30 32 vvcurveto
          32 -3 29 -7 25 vhcurveto
          80 80 -107 108 -66 -66 rlineto
          14 -30 -37 7 -44 hhcurveto
          -45 -36 -7 -14 -30 hvcurveto
          -65 66 -108 -108 80 -81 rlineto
          -6 -25 -3 -29 -31 vvcurveto
          -32 2 -29 7 -26 vhcurveto
          -80 -80 rlineto
          214 167 rmoveto
          75 20 31 50 50 21 -31 -75 -75 -21 -31 -50 -50 -20 31 75 vhcurveto
          endchar
        </CharString>
        <CharString name="d">
          -52 -14 callgsubr
          12 244 1 callsubr
          372 488 rmoveto
          -63 callsubr
          hintmask 01111100
          -68 274 -12 callgsubr
          614 -289 -164 59 vlineto
          -116 -286 -56 callsubr
        </CharString>
        <CharString name="degree">
          -456 556 72 91 73 hstem
          4 72 91 73 vstem
          4 674 rmoveto
          -66 52 -52 66 65 53 52 66 65 -53 53 -65 -66 -52 -53 -65 vhcurveto
          72 hmoveto
          24 21 21 25 24 21 -21 -24 -25 -21 -21 -24 -25 -21 21 25 vhcurveto
          endchar
        </CharString>
        <CharString name="dieresis">
          -256 -20 callsubr
          15 9 callsubr
          vstem
          15 611 -92 callgsubr
        </CharString>
        <CharString name="dieresis.cap">
          -238 -7 callgsubr
          -6 -2 callsubr
          vstem
          -6 841 -83 callgsubr
        </CharString>
        <CharString name="divide">
          -187 52 152 56 144 52 152 hstem
          179 156 vstem
          179 456 rmoveto
          -29 callgsubr
          -556 vmoveto
          -29 callgsubr
          302 56 rmoveto
          144 -441 -144 vlineto
          endchar
        </CharString>
        <CharString name="dollar">
          -22 -111 -21 120 191 -191 250 311 241 -191 191 113 -20 hstemhm
          22 229 28 131 35 210 -210 229 hintmask 1100111101000000
          410 -132 rmoveto
          121 vlineto
          171 16 93 85 153 vvcurveto
          -27 callsubr
          hintmask 1101011110000000
          -3 callsubr
          -83 53 -162 9 vhcurveto
          113 -131 -115 vlineto
          -191 -19 -66 -87 -131 vvcurveto
          -25 callgsubr
          hintmask 1011011110000000
          -2 callgsubr
          94 -42 154 -10 vhcurveto
          -120 vlineto
          endchar
        </CharString>
        <CharString name="dotaccentcmb">
          -374 -20 callsubr
          67 184 vstem
          67 611 -34 callgsubr
          endchar
        </CharString>
        <CharString name="dotaccentcmb.cap">
          -374 832 127 hstem
          67 184 vstem
          67 832 rmoveto
          184 127 -184 hlineto
          endchar
        </CharString>
        <CharString name="dotlessi">
          -51 callgsubr
          -19 callgsubr
          -95 callgsubr
          endchar
        </CharString>
        <CharString name="dotlessj">
          -22 callgsubr
          hstem
          71 230 vstem
          -78 callsubr
          endchar
        </CharString>
        <CharString name="e">
          -46 callgsubr
          -59 callgsubr
          208 vstem
          -105 callsubr
          endchar
        </CharString>
        <CharString name="eacute">
          -101 callsubr
          207 359 -87 callsubr
        </CharString>
        <CharString name="ecircumflex">
          -101 callsubr
          70 219 -98 callgsubr
        </CharString>
        <CharString name="edieresis">
          -49 callsubr
          hstemhm
          8 244 -148 9 callsubr
          -166 216 hintmask 11111001
          -105 callsubr
          hintmask 11110110
          -206 219 -92 callgsubr
        </CharString>
        <CharString name="egrave">
          -101 callsubr
          -59 219 -77 callsubr
        </CharString>
        <CharString name="eight">
          -8 -42 callgsubr
          162 152 136 178 hstem
          32 240 156 238 vstem
          10 212 rmoveto
          -134 121 -92 219 219 121 92 140 147 -141 35 0 vhcurveto
          10 vlineto
          0 117 33 127 vvcurveto
          123 -105 99 -211 -211 -107 -99 -123 -127 118 -33 0 vhcurveto
          -10 vlineto
          0 -140 -35 -153 vvcurveto
          418 26 rmoveto
          -52 -26 -22 -52 -52 -26 22 52 62 26 26 52 52 26 -26 -62 vhcurveto
          -146 302 rmoveto
          -84 callgsubr
          -36 -23 -26 -45 -45 -23 26 36 vhcurveto
          endchar
        </CharString>
        <CharString name="emdash">
          279 212 151 hstem
          963 212 rmoveto
          151 -939 -151 vlineto
          endchar
        </CharString>
        <CharString name="endash">
          -107 212 151 hstem
          577 212 rmoveto
          151 -553 -151 vlineto
          endchar
        </CharString>
        <CharString name="equal">
          -213 122 167 98 166 hstem
          40 289 rmoveto
          -167 415 167 vlineto
          -415 264 rmoveto
          -166 415 166 vlineto
          endchar
        </CharString>
        <CharString name="eth">
          -102 -39 callgsubr
          178 222 -20 58 0 callgsubr
          159 669 rmoveto
          -91 16 vlineto
          116 39 9 -15 9 -16 6 -16 rlinecurve
          -5 hlineto
          -97 callgsubr
          hvcurveto
          14 vlineto
          -3 146 -49 129 -92 110 67 23 rcurveline
          92 -16 vlineto
          -122 -42 -31 28 -35 27 -38 25 rlinecurve
          -114 -71 rlineto
          -21 vlineto
          14 -10 19 -15 19 -20 rrcurveto
          79 -529 -100 callgsubr
          endchar
        </CharString>
        <CharString name="exclam">
          -365 0 153 625 -20 hstem
          53 231 vstem
          53 hmoveto
          231 153 -231 hlineto
          13 34 rmoveto
          206 hlineto
          47 540 rlineto
          51 -299 -51 vlineto
          endchar
        </CharString>
        <CharString name="exclamdown">
          -365 -201 -21 625 153 hstem
          59 231 vstem
          290 -6 callgsubr
          -231 -153 231 hlineto
          -13 -54 rmoveto
          -206 hlineto
          -47 -520 rlineto
          -51 299 51 vlineto
          endchar
        </CharString>
        <CharString name="f">
          -328 -33 callgsubr
          -43 callsubr
          58 178 hstem
          64 228 vstem
          -35 callgsubr
          352 164 -78 228 78 164 -78 hlineto
          42 17 16 52 49 49 -5 0 vhcurveto
          157 vlineto
          0 -52 26 -110 -147 -86 -69 -167 vhcurveto
          -46 hlineto
          endchar
        </CharString>
        <CharString name="five">
          -57 -24 200 187 151 70 194 hstem
          31 232 vstem
          28 372 rmoveto
          45 -69 rlineto
          190 hlineto
          30 12 30 40 41 13 -31 -66 -62 -13 -28 -39 -42 -13 27 46 1 vhcurveto
          -232 -201 hlineto
          0 108 -72 184 198 116 108 183 147 -89 100 -156 -43 -58 -14 -20 -35 vhcurveto
          9 104 rlineto
          332 194 -532 hlineto
          endchar
        </CharString>
        <CharString name="foundryicon">
          380 -222 204 602 194 hstem
          44 -222 rmoveto
          1000 1000 -1000 hlineto
          495 -796 rmoveto
          -78 -68 27 31 -37 hvcurveto
          -6 5 -3 9 1 8 6 56 rcurveline
          2 15 11 12 18 -1 15 -1 9 -13 -1 -17 -3 -38 rcurveline
          31 -17 48 -18 52 -2 49 -2 51 16 31 32 -240 172 rcurveline
          -66 48 -26 47 61 vvcurveto
          124 119 48 92 75 60 -27 -29 35 vhcurveto
          8 -6 4 -9 -1 -9 -4 -54 rcurveline
          -1 -16 -15 -10 -13 1 -16 1 -12 12 1 17 3 37 rcurveline
          18 -31 -38 19 -52 hhcurveto
          -48 -51 -12 -33 -31 hvcurveto
          239 -172 rlineto
          68 -49 25 -47 -59 vvcurveto
          -107 -90 -68 -122 vhcurveto
          -148 452 rmoveto
          -1 -6 0 -6 -9 vvcurveto
          -35 20 -42 51 -37 vhcurveto
          232 -167 rlineto
          1 7 1 8 10 vvcurveto
          34 -8 33 -62 44 vhcurveto
          endchar
        </CharString>
        <CharString name="four">
          -14 0 176 55 152 395 -20 hstem
          18 402 rmoveto
          -171 325 -55 -127 -176 447 176 -61 55 80 152 -80 137 -259 -137 -90 vlineto
          123 395 rlineto
          -237 hlineto
          endchar
        </CharString>
        <CharString name="g">
          -52 -15 callgsubr
          -25 callsubr
          hintmask 11011100
          372 488 rmoveto
          -63 callsubr
          -43 vlineto
          -67 -36 -16 -72 -65 -69 9 10 -56 vhcurveto
          13 callsubr
          0 94 -33 145 188 101 79 197 vhcurveto
          352 44 vlineto
          hintmask 11101100
          164 -274 vlineto
          -116 -228 -56 callsubr
        </CharString>
        <CharString name="germandbls">
          -1 -14 152 -117 -21 556 -20 78 178 hstemhm
          64 228 31 210 -134 134 -134 219 -145 222 hintmask 1011100010000000
          342 17 rmoveto
          0 69 -31 80 139 65 77 105 99 -45 44 -53 31 vhcurveto
          hintmask 1011101000000000
          -56 33 -8 10 20 vvcurveto
          20 15 17 12 17 vhcurveto
          hintmask 0111100100000000
          26 37 32 39 74 vvcurveto
          132 -109 51 -156 -201 -88 -61 -175 vhcurveto
          -46 -6 callsubr
          -228 -36 callsubr
          274 555 hlineto
          45 13 14 40 40 14 -14 -33 vhcurveto
          hintmask 1011110000000000
          -59 -76 -68 -85 vvcurveto
          -64 30 -39 68 -38 vhcurveto
          hintmask 1011100010000000
          35 -19 17 -13 -18 vvcurveto
          -16 -7 -10 -35 -31 -58 18 0 vhcurveto
          endchar
        </CharString>
        <CharString name="grave">
          -441 -20 callsubr
          121 611 -77 callsubr
        </CharString>
        <CharString name="grave.cap">
          -441 -7 callgsubr
          108 841 -72 callgsubr
        </CharString>
        <CharString name="greater">
          8 callgsubr
          65 69 rmoveto
          398 161 rlineto
          184 vlineto
          -398 162 rlineto
          -21 -156 hlineto
          271 -92 rlineto
          -11 vlineto
          -271 -93 rlineto
          -155 vlineto
          endchar
        </CharString>
        <CharString name="guillemotleft">
          -188 -49 callgsubr
          300 208 -61 callsubr
          endchar
        </CharString>
        <CharString name="guillemotright">
          -188 -9 callsubr
          310 284 -60 callgsubr
          -142 -208 -60 callgsubr
          endchar
        </CharString>
        <CharString name="guilsinglleft">
          -409 -49 callgsubr
          endchar
        </CharString>
        <CharString name="guilsinglright">
          -409 -9 callsubr
          89 284 -60 callgsubr
          endchar
        </CharString>
        <CharString name="h">
          6 callsubr
          208 -20 hstem
          62 -29 callsubr
          vstem
          364 -82 callgsubr
          290 -81 callsubr
          -47 callsubr
          164 -75 callsubr
          -164 -44 vlineto
          endchar
        </CharString>
        <CharString name="hbar">
          6 callsubr
          44 79 -79 164 hstemhm
          62 -29 callsubr
          hintmask 11101100
          364 -82 callgsubr
          126 161 79 -161 vlineto
          hintmask 11011100
          85 -274 vlineto
          hintmask 11101100
          -85 -50 -79 94 -47 callsubr
          164 -75 callsubr
          -164 -44 vlineto
          endchar
        </CharString>
        <CharString name="hyphen">
          -319 237 164 hstem
          355 237 12 callsubr
          -321 13 callsubr
          endchar
        </CharString>
        <CharString name="i">
          -51 callgsubr
          75 12 callgsubr
          62 -9 callgsubr
          hintmask 11110000
          -95 callgsubr
          hintmask 11101000
          -216 447 -34 callgsubr
          endchar
        </CharString>
        <CharString name="iacute">
          -80 callgsubr
          85 587 -87 callsubr
        </CharString>
        <CharString name="icircumflex">
          -80 callgsubr
          -52 447 -98 callgsubr
        </CharString>
        <CharString name="idieresis">
          -51 callgsubr
          75 12 callgsubr
          -36 167 -69 230 -72 166 hintmask 11101000
          -95 callgsubr
          hintmask 11110100
          -328 447 -92 callgsubr
        </CharString>
        <CharString name="igrave">
          -80 callgsubr
          -181 447 -77 callsubr
        </CharString>
        <CharString name="ij">
          -55 -15 callgsubr
          58 164 -43 callsubr
          55 12 callgsubr
          62 -9 callgsubr
          137 -9 callgsubr
          hintmask 11111010
          -95 callgsubr
          hintmask 11110110
          -216 447 -34 callgsubr
          254 -386 -87 callgsubr
          hintmask 11111001
          81 55 -34 callgsubr
          endchar
        </CharString>
        <CharString name="itilde">
          -51 callgsubr
          75 -47 callgsubr
          -13 callsubr
          hintmask 11010110
          -95 callgsubr
          -276 458 -22 callsubr
          hintmask 11100110
          -72 callsubr
          hintmask 11001010
          -52 callgsubr
        </CharString>
        <CharString name="j">
          -22 callgsubr
          55 12 callgsubr
          71 -9 callgsubr
          hintmask 11110000
          -78 callsubr
          hintmask 11101000
          81 55 -34 callgsubr
          endchar
        </CharString>
        <CharString name="jcircumflex">
          -22 callgsubr
          55 167 hstem
          71 230 vstem
          -78 callsubr
          242 55 -98 callgsubr
        </CharString>
        <CharString name="k">
          -34 -33 callgsubr
          392 -20 242 -20 -19 callgsubr
          -63 callgsubr
          endchar
        </CharString>
        <CharString name="kcommaaccent">
          -34 -312 -21 333 164 392 -20 242 -20 hstemhm
          -13 callsubr
          -37 150 hintmask 11111000
          -63 callgsubr
          hintmask 11110100
          -355 -612 -65 callgsubr
        </CharString>
        <CharString name="kgreenlandic">
          -34 9 callgsubr
          62 230 vstem
          -41 callgsubr
          184 -81 callsubr
          -228 -33 callsubr
          endchar
        </CharString>
        <CharString name="l">
          -362 -4 callgsubr
          62 230 vstem
          18 614 -45 callgsubr
          endchar
        </CharString>
        <CharString name="ldot">
          -151 -33 callgsubr
          156 152 306 -20 -3 callgsubr
          76 156 vstem
          18 614 -45 callgsubr
          350 -458 rmoveto
          -29 callgsubr
          endchar
        </CharString>
        <CharString name="less">
          8 callgsubr
          455 69 rmoveto
          155 vlineto
          -271 93 rlineto
          11 vlineto
          271 92 rlineto
          156 -21 vlineto
          -398 -162 rlineto
          -184 vlineto
          398 -161 rlineto
          endchar
        </CharString>
        <CharString name="logicalnot">
          -161 145 -21 158 144 hstem
          340 161 vstem
          501 124 rmoveto
          302 -461 -144 300 -158 vlineto
          endchar
        </CharString>
        <CharString name="lslash">
          -336 -4 callgsubr
          80 230 vstem
          418 472 rmoveto
          121 vlineto
          -453 -230 rlineto
          -121 vlineto
          71 372 -45 callgsubr
          endchar
        </CharString>
        <CharString name="m">
          330 0 -23 callsubr
          hstemhm
          62 230 116 -29 callsubr
          cntrmask 00011100
          hintmask 10111100
          364 -50 callsubr
          -97 callsubr
          -164 -88 callsubr
          164 vlineto
          167 -68 75 -109 -101 -48 -45 -37 -40 vhcurveto
          39 -26 -40 43 -91 hhcurveto
          -90 -47 -50 -32 -32 hvcurveto
          hintmask 11011100
          68 -81 callsubr
          -228 -88 callsubr
          164 -75 callsubr
          -164 -44 vlineto
          endchar
        </CharString>
        <CharString name="macron">
          -41 634 104 hstem
          189 634 rmoveto
          357 104 -357 hlineto
          endchar
        </CharString>
        <CharString name="mu">
          -34 -201 -21 208 -71 callgsubr
          -43 callsubr
          hstemhm
          44 -29 callsubr
          hintmask 11011100
          44 -222 rmoveto
          230 hlineto
          -37 208 rlineto
          71 59 50 32 23 hvcurveto
          hintmask 10111100
          -68 274 -12 callgsubr
          392 -93 callgsubr
          328 -81 callsubr
          vlineto
          endchar
        </CharString>
        <CharString name="multiply">
          -138 101 -21 506 -20 hstem
          415 80 rmoveto
          123 123 -130 129 130 130 -123 124 -130 -130 -129 130 -124 -124 129 -130 -129 -129 124 -123 129 129 rlineto
          endchar
        </CharString>
        <CharString name="n">
          -20 0 -23 callsubr
          hstemhm
          60 -29 callsubr
          hintmask 10111000
          362 -82 callgsubr
          hintmask 11011000
          68 -81 callsubr
          -228 -88 callsubr
          164 -75 callsubr
          -164 -44 vlineto
          endchar
        </CharString>
        <CharString name="nacute">
          -20 -14 callsubr
          60 230 1 callsubr
          362 -82 callgsubr
          hintmask 11011100
          68 -81 callsubr
          -228 -88 callsubr
          164 -75 callsubr
          -164 -44 vlineto
          213 587 -87 callsubr
        </CharString>
        <CharString name="nbspace">
          -408 endchar
        </CharString>
        <CharString name="nine">
          -15 -42 callgsubr
          130 157 163 178 hstem
          10 247 vstem
          54 36 rmoveto
          0 109 -50 137 236 141 120 338 237 -130 111 -222 -202 -113 -82 -190 -179 115 -47 121 77 70 28 0 vhcurveto
          -21 vlineto
          -87 -41 -50 -81 -109 -108 33 0 vhcurveto
          274 254 rmoveto
          -46 -25 28 51 62 23 -74 callsubr
          hvcurveto
          -76 vlineto
          0 -34 -13 -31 vhcurveto
          endchar
        </CharString>
        <CharString name="ntilde">
          -20 0 164 228 164 -164 -5 callgsubr
          60 -29 callsubr
          hintmask 1011001110000000
          362 -82 callgsubr
          hintmask 1100101110000000
          68 -81 callsubr
          -228 -88 callsubr
          164 -75 callsubr
          -164 -44 vlineto
          -148 458 -22 callsubr
          hintmask 1101001110000000
          -72 callsubr
          hintmask 1100010110000000
          -52 callgsubr
        </CharString>
        <CharString name="numbersign">
          24 21 -21 193 139 105 139 202 -20 hstem
          377 22 rmoveto
          -22 143 vlineto
          23 193 rlineto
          131 hlineto
          16 139 rlineto
          -130 hlineto
          13 105 rlineto
          121 hlineto
          16 139 rlineto
          -120 hlineto
          23 180 rlineto
          22 -142 vlineto
          -25 -202 rlineto
          -120 hlineto
          23 180 rlineto
          22 -142 vlineto
          -25 -202 rlineto
          -124 hlineto
          -16 -139 rlineto
          122 hlineto
          -13 -105 rlineto
          -113 hlineto
          -16 -139 rlineto
          112 hlineto
          -21 -171 rlineto
          -22 143 vlineto
          23 193 rlineto
          119 hlineto
          -89 244 rmoveto
          119 hlineto
          -13 -105 rlineto
          -119 hlineto
          endchar
        </CharString>
        <CharString name="o">
          -88 -39 callgsubr
          178 -102 callgsubr
          endchar
        </CharString>
        <CharString name="oacute">
          -88 -39 callgsubr
          -18 callgsubr
          -102 callgsubr
          212 587 -87 callsubr
        </CharString>
        <CharString name="ocircumflex">
          -88 -39 callgsubr
          -18 callgsubr
          -102 callgsubr
          75 447 -98 callgsubr
        </CharString>
        <CharString name="odieresis">
          -88 -39 callgsubr
          -18 callgsubr
          hstemhm
          8 244 -143 167 92 163 -163 244 hintmask 11110010
          -107 callsubr
          hintmask 11101100
          -201 447 -92 callgsubr
        </CharString>
        <CharString name="oe">
          240 -45 callsubr
          -59 callgsubr
          -26 callsubr
          208 vstem
          -107 callsubr
          360 406 -105 callgsubr
          endchar
        </CharString>
        <CharString name="ograve">
          -88 -39 callgsubr
          -18 callgsubr
          -102 callgsubr
          -54 447 -77 callsubr
        </CharString>
        <CharString name="one">
          -179 -4 callgsubr
          14 -30 callgsubr
          126 -450 -96 -164 469 164 -84 614 -193 hlineto
          -222 -51 rlineto
          endchar
        </CharString>
        <CharString name="onehalf">
          95 0 104 180 110 2 -17 callsubr
          421 146 hintmask 11110011
          -42 callsubr
          -36 -778 -52 callsubr
          -495 569 -41 callsubr
        </CharString>
        <CharString name="onequarter">
          95 21 -21 85 96 215 -17 callsubr
          436 127 hintmask 11110011
          -56 callgsubr
          -579 492 -41 callsubr
        </CharString>
        <CharString name="onesuperior">
          -447 429 107 275 -20 hstemhm
          20 -23 callgsubr
          hintmask 11001000
          10 706 rmoveto
          57 -170 hlineto
          hintmask 11100000
          -47 -107 hlineto
          hintmask 11010000
          229 107 hlineto
          hintmask 11100000
          -24 callgsubr
        </CharString>
        <CharString name="ordfeminine">
          -371 507 72 -58 -21 124 50 39 79 hstemhm
          8 102 78 115 -115 137 hintmask 10111010
          188 507 rmoveto
          137 82 hlineto
          hintmask 01111100
          -22 82 hlineto
          80 -31 41 -107 -80 -59 -18 0 vhcurveto
          -76 vlineto
          9 33 44 6 39 hhcurveto
          38 8 -13 -26 hvcurveto
          -124 -56 -34 -62 -51 36 -27 57 48 27 25 16 12 hvcurveto
          hintmask 10111010
          80 vmoveto
          -26 -21 -16 -26 -19 -12 5 14 21 21 5 57 vhcurveto
          endchar
        </CharString>
        <CharString name="ordmasculine">
          -386 500 79 134 79 hstem
          10 112 78 112 vstem
          312 646 rmoveto
          97 -59 49 -92 -93 -58 -49 -97 -98 58 -48 93 92 59 48 98 vhcurveto
          -151 -67 rmoveto
          -26 -13 9 23 hvcurveto
          70 vlineto
          22 13 10 26 26 13 -10 -22 vhcurveto
          -70 vlineto
          -23 -13 -9 -26 vhcurveto
          endchar
        </CharString>
        <CharString name="oslash">
          -88 -100 -21 107 178 228 178 104 0 callgsubr
          218 -95 rmoveto
          -26 57 vlineto
          128 769 rlineto
          26 -57 vlineto
          266 -396 -107 callgsubr
          endchar
        </CharString>
        <CharString name="otilde">
          -88 -39 callgsubr
          -5 callgsubr
          -34 callsubr
          244 hintmask 11010111
          -107 callsubr
          -149 458 -22 callsubr
          hintmask 11100111
          -72 callsubr
          hintmask 11001011
          -52 callgsubr
        </CharString>
        <CharString name="p">
          -58 -222 164 44 178 228 11 callgsubr
          178 hstemhm
          48 2 callsubr
          hintmask 11011100
          347 -58 rmoveto
          -69 126 hlineto
          -62 callsubr
          hintmask 11101100
          68 -81 callsubr
          -450 -36 callsubr
          343 vlineto
          47 450 rmoveto
          -92 callsubr
          -26 callgsubr
          endchar
        </CharString>
        <CharString name="paragraph">
          51 -139 -21 952 -20 hstem
          290 163 70 164 vstem
          687 -160 rmoveto
          784 vlineto
          64 39 6 68 61 vvcurveto
          -56 hlineto
          -26 -26 -24 -71 vhcurveto
          -127 -54 50 -145 hhcurveto
          -178 -86 -124 -121 -145 86 -101 190 hvcurveto
          -461 163 775 vlineto
          22 -6 22 -6 26 -3 rrcurveto
          -760 vlineto
          endchar
        </CharString>
        <CharString name="parenleft">
          5 callsubr
          36 186 vstem
          36 328 rmoveto
          -368 219 -189 0 vhcurveto
          109 52 rlineto
          0 -142 198 307 vvcurveto
          305 142 205 0 vhcurveto
          -109 50 rlineto
          0 -219 -194 -366 vvcurveto
          endchar
        </CharString>
        <CharString name="parenright">
          5 callsubr
          128 186 vstem
          314 328 rmoveto
          366 -219 194 0 vhcurveto
          -109 -50 rlineto
          0 142 -205 -305 vvcurveto
          -307 -142 -198 0 vhcurveto
          109 -52 rlineto
          0 219 189 368 vvcurveto
          endchar
        </CharString>
        <CharString name="percent">
          142 -14 106 -71 -21 288 100 2 106 196 100 -14 -20 hstemhm
          14 140 67 142 124 140 67 142 hintmask 0111011111000000
          78 32 -8 callgsubr
          550 746 -8 callsubr
          -142 -591 rmoveto
          hintmask 1011101111000000
          -48 callgsubr
          -6 -18 -28 -27 -6 12 86 vhcurveto
          -613 401 rmoveto
          -48 callgsubr
          -5 -18 -29 -27 -6 12 86 vhcurveto
          endchar
        </CharString>
        <CharString name="period">
          -464 -33 callgsubr
          hstem
          40 156 vstem
          40 hmoveto
          -20 callgsubr
          endchar
        </CharString>
        <CharString name="periodcentered">
          -497 320 152 hstem
          22 156 vstem
          22 320 rmoveto
          -29 callgsubr
          endchar
        </CharString>
        <CharString name="plus">
          -132 115 -21 165 167 165 -20 hstem
          205 167 vstem
          40 426 rmoveto
          -167 165 -165 167 165 164 167 -164 165 -167 -165 vlineto
          endchar
        </CharString>
        <CharString name="plusminus">
          -131 42 158 215 167 166 -20 hstem
          206 167 vstem
          40 582 rmoveto
          -167 166 -164 167 11 callsubr
          167 -164 166 -167 -166 vlineto
          -149 -382 rmoveto
          -158 460 158 vlineto
          endchar
        </CharString>
        <CharString name="q">
          -54 -222 164 -25 callsubr
          hintmask 11101100
          372 -58 rmoveto
          -69 -164 299 614 44 164 -274 -68 hlineto
          hintmask 11011100
          -63 callsubr
          -116 260 -56 callsubr
        </CharString>
        <CharString name="question">
          -94 -33 callgsubr
          406 222 hstemhm
          141 239 -54 54 hintmask 11010000
          380 211 rmoveto
          181 228 -52 235 vvcurveto
          123 -111 94 -179 -168 -148 -77 0 vhcurveto
          53 -204 rlineto
          0 116 59 95 45 15 -17 -23 vhcurveto
          -88 -185 -8 -169 vvcurveto
          -54 vlineto
          hintmask 11100000
          -211 vmoveto
          238 164 -238 hlineto
          endchar
        </CharString>
        <CharString name="questiondown">
          -94 -236 222 406 164 hstemhm
          234 54 -54 239 hintmask 11100000
          234 345 rmoveto
          -181 -228 52 -235 vvcurveto
          -123 111 -94 179 168 148 77 0 vhcurveto
          -53 204 rlineto
          0 -116 -59 -95 -45 -15 17 23 vhcurveto
          88 185 8 169 vvcurveto
          54 vlineto
          hintmask 11010000
          211 vmoveto
          -238 -164 238 hlineto
          endchar
        </CharString>
        <CharString name="quotedbl">
          -335 5 callgsubr
          100 hlineto
          77 222 rlineto
          -134 hlineto
          100 -222 rmoveto
          100 hlineto
          76 222 rlineto
          -133 hlineto
          endchar
        </CharString>
        <CharString name="quotedblbase">
          -322 -102 -17 callgsubr
          hmoveto
          -58 callgsubr
        </CharString>
        <CharString name="quotedblleft">
          -322 548 128 -128 230 hstemhm
          40 140 36 140 hintmask 10110000
          356 676 -28 callsubr
          -176 128 -28 callsubr
          endchar
        </CharString>
        <CharString name="quotedblright">
          -322 548 -17 callgsubr
          650 rmoveto
          -58 callgsubr
        </CharString>
        <CharString name="quoteleft">
          -498 548 230 hstem
          40 140 vstem
          180 676 rmoveto
          -49 hlineto
          43 102 rlineto
          -67 hlineto
          -11 callsubr
          endchar
        </CharString>
        <CharString name="quoteright">
          -498 548 230 hstem
          30 140 vstem
          30 650 rmoveto
          49 hlineto
          -19 callsubr
          -35 callsubr
          endchar
        </CharString>
        <CharString name="quotesinglbase">
          -498 -102 230 -107 -21 hstemhm
          30 140 hintmask 01100000
          30 hmoveto
          49 hlineto
          hintmask 10100000
          -19 callsubr
          hintmask 01100000
          67 102 rlineto
          hintmask 10100000
          128 -140 vlineto
          endchar
        </CharString>
        <CharString name="quotesingle">
          -454 5 callgsubr
          123 hlineto
          77 222 rlineto
          -157 hlineto
          endchar
        </CharString>
        <CharString name="r">
          -187 0 -23 callsubr
          hstemhm
          -13 callsubr
          hintmask 11010000
          -67 callsubr
          hintmask 10110000
          -31 callsubr
          hintmask 11010000
          66 -274 vlineto
          endchar
        </CharString>
        <CharString name="rcaron">
          -187 -14 callsubr
          -13 callsubr
          hintmask 11011000
          -67 callsubr
          hintmask 10111000
          -31 callsubr
          hintmask 11011000
          66 -274 vlineto
          266 157 -40 callsubr
        </CharString>
        <CharString name="rcommaaccent">
          -187 -312 -21 333 -23 callsubr
          hstemhm
          -13 callsubr
          -186 150 hintmask 11101000
          -67 callsubr
          hintmask 11011000
          -31 callsubr
          hintmask 11101000
          66 -274 vlineto
          hintmask 11100100
          88 -776 -65 callgsubr
        </CharString>
        <CharString name="registered">
          6 126 105 75 69 181 60 71 105 hstemhm
          24 105 82 129 -129 155 -128 102 58 103 -103 121 66 105 hintmask 1111110010100000
          340 436 rmoveto
          34 24 -4 -34 hvcurveto
          -92 vlineto
          hintmask 1111110001100000
          121 69 -20 26 hlineto
          31 -14 11 -24 5 vhcurveto
          4 vlineto
          hintmask 1111110010100000
          26 13 14 24 38 vvcurveto
          62 -38 27 -67 vhcurveto
          -185 -70 hlineto
          hintmask 1111100110100000
          27 -171 hlineto
          hintmask 1111110010100000
          -27 -69 hlineto
          hintmask 1111101010100000
          155 69 hlineto
          hintmask 1111110010100000
          -26 hlineto
          110 vmoveto
          71 36 vlineto
          13 7 -7 -18 hvcurveto
          -21 vlineto
          -19 -7 -6 -13 vhcurveto
          -352 -26 -73 callsubr
        </CharString>
        <CharString name="ring">
          -522 603 82 79 83 hstem
          -29 82 79 83 vstem
          -29 725 -91 callsubr
        </CharString>
        <CharString name="ring.cap">
          -522 792 82 79 83 hstem
          -22 82 79 83 vstem
          -22 914 -91 callsubr
        </CharString>
        <CharString name="s">
          -174 -14 152 281 151 hstem
          6 220 80 222 vstem
          35 17 rmoveto
          0 89 -31 152 173 79 73 119 116 -72 56 -154 16 vhcurveto
          -62 6 -14 7 16 vvcurveto
          16 23 8 54 82 108 -14 0 vhcurveto
          135 vlineto
          0 -79 30 -153 -182 -73 -79 -104 -112 84 -59 139 -19 vhcurveto
          63 -9 14 -6 -18 vvcurveto
          -16 -13 -10 -59 -74 -125 18 0 vhcurveto
          endchar
        </CharString>
        <CharString name="section">
          -104 -94 152 507 151 hstemhm
          22 187 -143 220 26 222 -136 180 hintmask 11101000
          76 -63 rmoveto
          0 77 -31 129 173 79 73 119 30 -5 27 -10 22 vhcurveto
          hintmask 11010100
          39 33 20 55 55 vvcurveto
          105 -80 50 -136 27 vhcurveto
          -62 12 -14 5 19 vvcurveto
          19 23 8 54 70 85 -14 0 vhcurveto
          135 vlineto
          0 -70 30 -127 -182 -73 -79 -104 -33 7 -28 13 -24 vhcurveto
          hintmask 11101000
          -42 -32 -22 -46 -58 vvcurveto
          -107 91 -48 122 -30 vhcurveto
          64 -16 13 -4 -20 vvcurveto
          -19 -13 -10 -59 -62 -102 18 0 vhcurveto
          hintmask 11100100
          322 223 rmoveto
          -25 -8 -13 -88 17 vhcurveto
          -74 14 -19 12 26 vvcurveto
          27 13 14 94 -20 vhcurveto
          68 -14 14 -15 -23 vvcurveto
          endchar
        </CharString>
        <CharString name="semicolon">
          7 callgsubr
          325 164 -31 callgsubr
          161 vmoveto
          -20 callgsubr
          endchar
        </CharString>
        <CharString name="seven">
          -78 21 -21 584 194 hstem
          10 210 vstem
          10 492 rmoveto
          210 92 149 hlineto
          0 -247 -323 -261 vvcurveto
          283 hlineto
          276 233 350 0 vhcurveto
          152 -628 vlineto
          endchar
        </CharString>
        <CharString name="six">
          -15 -42 callgsubr
          155 157 138 178 hstem
          438 247 vstem
          636 742 rmoveto
          0 -100 50 -141 -223 -154 -129 -329 -237 137 -111 215 202 113 82 185 176 -115 47 -121 -77 -70 -28 0 vhcurveto
          29 vlineto
          79 41 58 96 98 99 -33 0 vhcurveto
          -269 -262 rmoveto
          46 25 -28 -53 -10 callsubr
          hvcurveto
          68 vlineto
          0 34 13 31 vhcurveto
          endchar
        </CharString>
        <CharString name="slash">
          -285 -130 -21 993 -20 hstem
          -20 -119 -8 callgsubr
          320 961 -8 callsubr
          endchar
        </CharString>
        <CharString name="space">
          -408 endchar
        </CharString>
        <CharString name="sterling">
          -92 -14 191 -191 242 -208 157 138 125 129 223 -174 174 hstemhm
          50 240 -180 220 hintmask 00111001
          25 315 rmoveto
          84 hlineto
          1 -10 0 -11 -11 vvcurveto
          -94 -50 -71 -36 -42 vhcurveto
          86 -86 rlineto
          13 11 28 17 53 hhcurveto
          hintmask 01011010
          77 32 -34 91 hhcurveto
          188 22 141 101 hvcurveto
          -146 hlineto
          hintmask 10011001
          -20 -13 -31 -62 -38 -26 9 11 -26 vhcurveto
          17 31 11 40 1 47 rrcurveto
          147 125 -166 hlineto
          hintmask 10010110
          -10 36 -11 35 37 vvcurveto
          51 21 19 44 49 6 -28 0 vhcurveto
          hintmask 10011010
          -21 181 166 vlineto
          34 -60 -88 23 -98 hhcurveto
          -204 -91 -106 -119 -60 10 -38 13 -29 hvcurveto
          -48 hlineto
          endchar
        </CharString>
        <CharString name="t">
          -261 -39 callgsubr
          164 118 -20 hstemhm
          80 212 vstemhm
          292 674 rmoveto
          -212 -45 hlineto
          -43 -23 -30 -53 vhcurveto
          13 callsubr
          hintmask 11110000
          44 -181 hlineto
          -170 78 -55 135 97 75 30 0 vhcurveto
          157 vlineto
          0 -46 -9 -37 -71 callsubr
          164 135 164 -135 vlineto
          endchar
        </CharString>
        <CharString name="thorn">
          -56 -222 164 44 178 228 178 208 -20 hstem
          50 2 callsubr
          vstem
          6 -30 callgsubr
          44 -672 -36 callsubr
          343 164 -69 126 hlineto
          -62 callsubr
          290 -274 vlineto
          390 -550 rmoveto
          -92 callsubr
          -26 callgsubr
          endchar
        </CharString>
        <CharString name="three">
          -85 -42 callgsubr
          158 151 141 178 hstem
          24 200 136 236 vstem
          218 322 rmoveto
          72 hlineto
          49 21 -25 -49 -62 -23 -22 -45 -43 callgsubr
          28 -200 -211 vlineto
          0 101 -69 175 210 101 93 142 99 -65 46 -42 26 vhcurveto
          10 vlineto
          38 30 54 47 91 vvcurveto
          140 -101 82 -185 -187 -99 -65 0 vhcurveto
          -204 200 17 -86 callgsubr
          -41 -21 -26 -50 vhcurveto
          -71 hlineto
          endchar
        </CharString>
        <CharString name="threequarters">
          95 21 -21 85 96 209 112 58 71 51 110 -14 -20 hstemhm
          4 -1 callsubr
          383 127 hintmask 1111010101000000
          -56 callgsubr
          -536 379 rmoveto
          hintmask 1111100011000000
          4 callgsubr
          hintmask 1111101001000000
          -60 callsubr
          hintmask 1111100101000000
          -17 -8 -11 -57 vhcurveto
          endchar
        </CharString>
        <CharString name="threesuperior">
          -444 421 112 58 71 51 110 hstemhm
          18 -1 callsubr
          hintmask 11101000
          54 591 rmoveto
          hintmask 11100100
          4 callgsubr
          hintmask 11110000
          -60 callsubr
          hintmask 11101000
          -17 -8 -11 -57 vhcurveto
          endchar
        </CharString>
        <CharString name="tilde">
          -211 611 -47 callgsubr
          hintmask 01010000
          94 622 -22 callsubr
          hintmask 10010000
          -72 callsubr
          hintmask 00100000
          -52 callgsubr
        </CharString>
        <CharString name="tilde.cap">
          -211 835 136 -114 -21 37 98 -98 134 -1 -20 hstemhm
          hintmask 01101000
          50 836 -21 callgsubr
          hintmask 10001000
          -75 callgsubr
          hintmask 01010000
          -55 callgsubr
        </CharString>
        <CharString name="two">
          -59 0 11 callgsubr
          221 393 185 hstemhm
          30 200 hintmask 01110000
          12 hmoveto
          635 221 -195 hlineto
          hintmask 10110000
          -57 -122 vlineto
          127 103 171 136 162 vvcurveto
          162 -103 72 -179 -197 -119 -72 0 vhcurveto
          -237 200 50 -86 callgsubr
          -63 -146 -149 -208 -175 vhcurveto
          endchar
        </CharString>
        <CharString name="twosuperior">
          -394 429 104 180 110 hstem
          148 146 vstem
          24 429 -52 callsubr
          endchar
        </CharString>
        <CharString name="u">
          -32 -57 callgsubr
          164 hstemhm
          -4 callsubr
          hintmask 10111000
          -99 callgsubr
          hintmask 01111000
          -68 274 -12 callgsubr
          392 -93 callgsubr
          endchar
        </CharString>
        <CharString name="uacute">
          -64 callgsubr
          1 callsubr
          -99 callgsubr
          hintmask 01111100
          -68 274 -12 callgsubr
          392 -93 callgsubr
          254 523 -87 callsubr
        </CharString>
        <CharString name="ucircumflex">
          -64 callgsubr
          1 callsubr
          -99 callgsubr
          hintmask 01111100
          -68 274 -12 callgsubr
          392 -93 callgsubr
          117 383 -98 callgsubr
        </CharString>
        <CharString name="udieresis">
          -64 callgsubr
          -159 159 97 166 -147 230 hintmask 10111001
          -99 callgsubr
          hintmask 01111001
          -68 274 -12 callgsubr
          392 -93 callgsubr
          hintmask 10110110
          -159 383 -92 callgsubr
        </CharString>
        <CharString name="ugrave">
          -64 callgsubr
          1 callsubr
          -99 callgsubr
          hintmask 01111100
          -68 274 -12 callgsubr
          392 -93 callgsubr
          -12 383 -77 callsubr
        </CharString>
        <CharString name="underscore">
          -76 -166 94 hstem
          16 -166 rmoveto
          600 94 -600 hlineto
          endchar
        </CharString>
        <CharString name="uni0001">
          endchar
        </CharString>
        <CharString name="uni0002">
          endchar
        </CharString>
        <CharString name="uni0003">
          endchar
        </CharString>
        <CharString name="uni0004">
          endchar
        </CharString>
        <CharString name="uni0005">
          endchar
        </CharString>
        <CharString name="uni0006">
          endchar
        </CharString>
        <CharString name="uni0007">
          endchar
        </CharString>
        <CharString name="uni0008">
          endchar
        </CharString>
        <CharString name="uni0009">
          endchar
        </CharString>
        <CharString name="uni0010">
          endchar
        </CharString>
        <CharString name="uni0011">
          endchar
        </CharString>
        <CharString name="uni0012">
          endchar
        </CharString>
        <CharString name="uni0013">
          endchar
        </CharString>
        <CharString name="uni0014">
          endchar
        </CharString>
        <CharString name="uni0015">
          endchar
        </CharString>
        <CharString name="uni0016">
          endchar
        </CharString>
        <CharString name="uni0017">
          endchar
        </CharString>
        <CharString name="uni0018">
          endchar
        </CharString>
        <CharString name="uni0019">
          endchar
        </CharString>
        <CharString name="uni00AD">
          -372 206 164 hstem
          313 206 12 callsubr
          -291 13 callsubr
          endchar
        </CharString>
        <CharString name="v">
          -66 -13 callgsubr
          107 -392 rlineto
          338 hlineto
          104 392 rlineto
          43 164 -294 -164 45 hlineto
          -54 -228 3 callsubr
          -54 228 rlineto
          45 164 hlineto
          endchar
        </CharString>
        <CharString name="w">
          257 -13 callgsubr
          102 -392 rlineto
          295 hlineto
          34 168 rlineto
          10 hlineto
          36 -168 rlineto
          298 hlineto
          97 392 rlineto
          43 164 -295 -164 46 hlineto
          -33 -206 3 callsubr
          -81 370 rlineto
          -194 hlineto
          -77 -370 3 callsubr
          -36 206 rlineto
          45 164 hlineto
          endchar
        </CharString>
        <CharString name="x">
          -75 9 callgsubr
          617 392 12 callsubr
          -218 vlineto
          -42 -183 rlineto
          -20 hlineto
          -46 183 rlineto
          -266 -164 43 hlineto
          53 -107 -56 -121 rlineto
          -47 -164 225 hlineto
          45 188 rlineto
          20 hlineto
          50 -188 rlineto
          265 164 -43 hlineto
          -56 111 52 117 rlineto
          endchar
        </CharString>
        <CharString name="y">
          -60 -15 callgsubr
          44 178 -43 callsubr
          -84 callsubr
          endchar
        </CharString>
        <CharString name="yacute">
          -60 -15 callgsubr
          44 178 -43 callsubr
          55 167 -84 callsubr
          258 523 -87 callsubr
        </CharString>
        <CharString name="ydieresis">
          -60 -15 callgsubr
          44 178 -43 callsubr
          55 12 callgsubr
          46 230 -155 9 callsubr
          -151 230 hintmask 11111001
          -99 callgsubr
          -42 vlineto
          -68 -36 -16 -72 -82 -73 7 12 -62 vhcurveto
          13 callsubr
          0 104 -33 150 197 104 95 197 vhcurveto
          500 -93 callgsubr
          hintmask 11110110
          -155 383 -92 callgsubr
        </CharString>
        <CharString name="yen">
          47 -33 callgsubr
          64 79 68 79 160 164 -5 callsubr
          92 -160 rlineto
          -95 -79 140 hlineto
          39 -68 rlineto
          -179 -79 202 -64 -60 -64 callsubr
          64 193 79 -172 hlineto
          38 68 rlineto
          134 79 -90 hlineto
          90 160 -55 callsubr
          endchar
        </CharString>
        <CharString name="z">
          -150 0 11 callgsubr
          220 136 200 -51 callsubr
          hstemhm
          hintmask 10100000
          10 149 rmoveto
          -149 540 vlineto
          hintmask 01100000
          220 -151 vlineto
          hintmask 10100000
          -56 -96 vlineto
          238 249 rlineto
          143 -525 -200 149 vlineto
          hintmask 10010000
          36 89 vlineto
          endchar
        </CharString>
        <CharString name="zero">
          24 -10 callgsubr
          366 -38 callgsubr
          352 225 rmoveto
          292 -137 111 -215 -215 -137 -111 -292 -292 137 -111 215 215 137 111 292 vhcurveto
          endchar
        </CharString>
      <CharString index="0">
        rmoveto
        195 -117 97 -185 -97 callgsubr
        6 callgsubr
        -114 -100 callgsubr
        return
      </CharString>
      <CharString index="1">
        98 13 21 vstem
        408 hmoveto
        392 -15 callsubr
        -169 614 rlineto
        -364 13 callgsubr
        -614 rlineto
        -40 -164 342 -32 callsubr
        hlineto
        16 80 rlineto
        135 hlineto
        17 -80 rlineto
        -60 hlineto
        -29 385 rmoveto
        10 hlineto
        41 -199 rlineto
        -92 hlineto
        return
      </CharString>
      <CharString index="2">
        rmoveto
        -100 callsubr
        -104 callsubr
        -61 callgsubr
        return
      </CharString>
      <CharString index="3">
        368 hmoveto
        274 -12 callgsubr
        164 hlineto
        161 -63 81 -214 -159 -118 -35 0 vhcurveto
        -95 callsubr
        hvcurveto
        return
      </CharString>
      <CharString index="4">
        366 328 rmoveto
        83 34 -13 -80 hvcurveto
        -235 317 164 -47 77 vlineto
        70 -32 38 -64 10 vhcurveto
        -1 10 rlineto
        68 26 36 70 88 vvcurveto
        165 -101 60 -164 vhcurveto
        -469 -85 callgsubr
        406 164 -66 hlineto
        286 vmoveto
        -69 callgsubr
        return
      </CharString>
      <CharString index="5">
        4 callsubr
        -107 callsubr
        return
      </CharString>
      <CharString index="6">
        -66 callgsubr
        116 230 hintmask 01111110
        -104 callgsubr
        hintmask 10111110
        -66 callsubr
        hintmask 01111110
        -85 callsubr
        return
      </CharString>
      <CharString index="7">
        rmoveto
        -38 -20 19 45 hvcurveto
        100 vlineto
        -96 callsubr
        vhcurveto
        return
      </CharString>
      <CharString index="8">
        276 -57 callsubr
        -164 hlineto
        -167 68 -75 109 90 47 50 32 32 vhcurveto
        return
      </CharString>
      <CharString index="9">
        rmoveto
        149 15 hlineto
        -117 152 rlineto
        -197 hlineto
        -117 -152 rlineto
        -15 149 vlineto
        62 65 rlineto
        9 hlineto
        endchar
      </CharString>
      <CharString index="10">
        -100 callsubr
        185 117 97 195 return
      </CharString>
      <CharString index="11">
        rmoveto
        168 15 hlineto
        -127 96 rlineto
        -263 hlineto
        -127 -96 rlineto
        -15 168 vlineto
        79 57 rlineto
        23 hlineto
        endchar
      </CharString>
      <CharString index="12">
        292 -57 callsubr
        -228 -88 callsubr
        hlineto
        return
      </CharString>
      <CharString index="13">
        hstem
        487 224 vstem
        -98 callsubr
        return
      </CharString>
      <CharString index="14">
        -284 -164 54 -164 -74 callgsubr
        return
      </CharString>
      <CharString index="15">
        rmoveto
        167 167 -167 hlineto
        256 -167 rmoveto
        166 167 -166 hlineto
        endchar
      </CharString>
      <CharString index="16">
        302 -86 callgsubr
        vhcurveto
        return
      </CharString>
      <CharString index="17">
        -233 -89 callsubr
        return
      </CharString>
      <CharString index="18">
        322 -224 -158 -121 178 88 114 -88 158 121 hlineto
        return
      </CharString>
      <CharString index="19">
        rmoveto
        26 -251 vlineto
        -109 -96 rlineto
        -15 197 vlineto
        endchar
      </CharString>
      <CharString index="20">
        rmoveto
        67 -378 hlineto
        -50 -24 -22 -43 -42 -52 7 0 vhcurveto
        -163 vlineto
        0 75 -22 83 156 77 87 183 vhcurveto
        522 -297 vlineto
        return
      </CharString>
      <CharString index="21">
        vlineto
        -84 callgsubr
        return
      </CharString>
      <CharString index="22">
        -164 -73 callgsubr
        return
      </CharString>
      <CharString index="23">
        52 23 -74 callsubr
        return
      </CharString>
      <CharString index="24">
        -44 callgsubr
        -69 callsubr
      </CharString>
      <CharString index="25">
        -50 callsubr
        167 -68 75 -109 -90 -47 -50 -32 -32 vhcurveto
        return
      </CharString>
      <CharString index="26">
        -80 callsubr
        -400 return
      </CharString>
      <CharString index="27">
        -51 callgsubr
        75 167 -19 callgsubr
        -95 callgsubr
        return
      </CharString>
      <CharString index="28">
        0 -68 callgsubr
        return
      </CharString>
      <CharString index="29">
        318 -12 callgsubr
        return
      </CharString>
      <CharString index="30">
        -270 -79 callgsubr
        63 -1 callgsubr
        -90 callsubr
        return
      </CharString>
      <CharString index="31">
        -56 -82 callsubr
        70 100 58 178 return
      </CharString>
      <CharString index="32">
        82 93 -38 90 hhcurveto
        100 23 57 114 hvcurveto
        -56 hlineto
        -15 -13 -20 -46 vhcurveto
        return
      </CharString>
      <CharString index="33">
        vlineto
        -92 callsubr
        return
      </CharString>
      <CharString index="34">
        -7 callsubr
        -164 return
      </CharString>
      <CharString index="35">
        rmoveto
        197 15 hlineto
        -109 96 rlineto
        -251 -26 hlineto
        endchar
      </CharString>
      <CharString index="36">
        178 -51 callsubr
        return
      </CharString>
      <CharString index="37">
        -45 -20 -19 -38 return
      </CharString>
      <CharString index="38">
        164 54 vlineto
        -79 callsubr
        hvcurveto
        -36 -39 callsubr
        vhcurveto
        return
      </CharString>
      <CharString index="39">
        164 -50 callgsubr
        return
      </CharString>
      <CharString index="40">
        hstem
        82 230 344 230 vstem
        596 -37 callsubr
        -238 hlineto
        -263 402 rlineto
        -371 -85 callgsubr
        350 -32 callsubr
        287 hlineto
        293 -451 rlineto
        281 614 -18 callsubr
        -350 hlineto
        return
      </CharString>
      <CharString index="41">
        -76 callgsubr
        41 12 callgsubr
        8 244 return
      </CharString>
      <CharString index="42">
        rmoveto
        41 hlineto
        -32 -113 rlineto
        86 hlineto
        55 113 rlineto
        142 -150 vlineto
        endchar
      </CharString>
      <CharString index="43">
        -32 -57 callgsubr
        164 55 12 callgsubr
        46 230 return
      </CharString>
      <CharString index="44">
        -41 callgsubr
        406 -81 callsubr
        -450 -33 callsubr
        return
      </CharString>
      <CharString index="45">
        24 10 -14 -18 -18 -10 -14 -24 -52 -60 14 0 hvcurveto
        -71 vlineto
        -9 33 43 -9 47 hhcurveto
        88 53 41 72 hvcurveto
        return
      </CharString>
      <CharString index="46">
        -6 -116 6 vlineto
        -68 callsubr
        vhcurveto
        return
      </CharString>
      <CharString index="47">
        rmoveto
        -15 vlineto
        -79 -208 rlineto
        131 hlineto
        116 192 rlineto
        47 vlineto
        -116 192 rlineto
        -131 hlineto
        return
      </CharString>
      <CharString index="48">
        hstem
        -34 callsubr
        return
      </CharString>
      <CharString index="49">
        -65 callsubr
        176 -128 -27 callgsubr
        endchar
      </CharString>
      <CharString index="50">
        -82 callsubr
        228 return
      </CharString>
      <CharString index="51">
        -42 callsubr
        91 -397 rmoveto
        -112 hlineto
        -48 -214 rlineto
        -82 172 -85 127 85 39 96 -39 81 -127 -81 -55 vlineto
        return
      </CharString>
      <CharString index="52">
        -80 -79 36 -101 hhcurveto
        -103 -27 -54 -117 hvcurveto
        endchar
      </CharString>
      <CharString index="53">
        27 0 -48 callsubr
        return
      </CharString>
      <CharString index="54">
        178 450 178 return
      </CharString>
      <CharString index="55">
        -68 -67 46 -75 hhcurveto
        -97 -23 -66 -105 hvcurveto
        endchar
      </CharString>
      <CharString index="56">
        -362 -33 callgsubr
        392 -20 return
      </CharString>
      <CharString index="57">
        450 164 return
      </CharString>
      <CharString index="58">
        -9 callsubr
        289 492 -61 callsubr
        return
      </CharString>
      <CharString index="59">
        -152 69 -49 107 105 68 50 151 150 -68 51 -105 -107 -69 -50 -151 vhcurveto
        140 3 rmoveto
        80 6 18 27 29 5 -18 -80 -80 return
      </CharString>
      <CharString index="60">
        136 -88 88 -88 134 -11 -20 hstemhm
        return
      </CharString>
      <CharString index="61">
        -120 -45 callsubr
        return
      </CharString>
      <CharString index="62">
        rmoveto
        44 -47 callsubr
        614 -274 hlineto
        return
      </CharString>
      <CharString index="63">
        rmoveto
        187 111 -187 hlineto
        return
      </CharString>
      <CharString index="64">
        -37 callgsubr
        hvcurveto
        return
      </CharString>
      <CharString index="65">
        -14 178 return
      </CharString>
      <CharString index="66">
        651 392 12 callsubr
        -211 vlineto
        -124 -184 rlineto
        -24 return
      </CharString>
      <CharString index="67">
        -60 -164 416 hlineto
        205 159 97 292 292 -159 97 -205 hvcurveto
        -416 hlineto
        340 -614 rmoveto
        return
      </CharString>
      <CharString index="68">
        -42 callgsubr
        228 return
      </CharString>
      <CharString index="69">
        164 -103 callsubr
        return
      </CharString>
      <CharString index="70">
        -45 -23 22 52 return
      </CharString>
      <CharString index="71">
        rmoveto
        -23 hlineto
        -79 57 rlineto
        -168 -15 hlineto
        127 -96 rlineto
        263 hlineto
        127 96 rlineto
        15 -168 vlineto
        endchar
      </CharString>
      <CharString index="72">
        18 392 rmoveto
        44 -228 -36 callsubr
        return
      </CharString>
      <CharString index="73">
        rmoveto
        184 167 -184 hlineto
        return
      </CharString>
      <CharString index="74">
        0 164 return
      </CharString>
      <CharString index="75">
        -16 callgsubr
        629 256 -199 -92 -90 450 92 164 -432 hlineto
        return
      </CharString>
      <CharString index="76">
        hstem
        41 156 vstem
        41 hmoveto
        51 hlineto
        -52 -161 rlineto
        86 hlineto
        71 161 rlineto
        164 -156 vlineto
        return
      </CharString>
      <CharString index="77">
        614 rmoveto
        return
      </CharString>
      <CharString index="78">
        156 152 -156 hlineto
        return
      </CharString>
      <CharString index="79">
        244 -59 callsubr
        return
      </CharString>
      <CharString index="80">
        rmoveto
        -65 callsubr
        return
      </CharString>
      <CharString index="81">
        100 -75 callsubr
        return
      </CharString>
      <CharString index="82">
        -156 96 -53 198 -74 vhcurveto
        47 -17 11 -14 -18 vvcurveto
        -26 -17 -14 -44 vhcurveto
        return
      </CharString>
      <CharString index="83">
        -41 275 -108 hlineto
        -90 -37 rlineto
        endchar
      </CharString>
      <CharString index="84">
        188 -188 229 -182 141 return
      </CharString>
      <CharString index="85">
        -381 -15 callgsubr
        -50 callgsubr
        return
      </CharString>
      <CharString index="86">
        rmoveto
        15 19 22 45 vhcurveto
        return
      </CharString>
      <CharString index="87">
        156 164 -156 hlineto
        return
      </CharString>
      <CharString index="88">
        -3 callgsubr
        vstem
        return
      </CharString>
      <CharString index="89">
        178 41 167 return
      </CharString>
      <CharString index="90">
        230 -128 128 hstemhm
        30 140 36 140 hintmask 01110000
        30 return
      </CharString>
      <CharString index="91">
        614 rmoveto
        -73 callgsubr
        return
      </CharString>
      <CharString index="92">
        -236 178 return
      </CharString>
      <CharString index="93">
        -57 callgsubr
        178 208 -20 hstemhm
        return
      </CharString>
      <CharString index="94">
        21 -21 392 164 hstem
        4 -6 callgsubr
        -164 42 vlineto
        return
      </CharString>
      <CharString index="95">
        164 -44 return
      </CharString>
      <CharString index="96">
        -37 -79 callgsubr
        hstem
        456 199 vstem
        return
      </CharString>
      <CharString index="97">
        -54 callsubr
        hstem
        return
      </CharString>
      <CharString index="98">
        230 -216 184 return
      </CharString>
      <CharString index="99">
        rmoveto
        -32 143 vlineto
        return
      </CharString>
      <CharString index="100">
        841 -1 callgsubr
        return
      </CharString>
      <CharString index="101">
        556 rmoveto
        return
      </CharString>
      <CharString index="102">
        178 41 -47 callgsubr
        return
      </CharString>
      <CharString index="103">
        -33 callgsubr
        614 -20 hstem
        return
      </CharString>
      <CharString index="104">
        hstem
        -13 callsubr
        return
      </CharString>
      <CharString index="105">
        -50 -12 19 40 hvcurveto
        -220 -198 hlineto
        0 return
      </CharString>
      <CharString index="106">
        111 hstem
        return
      </CharString>
      <CharString index="107">
        -20 4 callsubr
        return
      </CharString>
      <CharString index="108">
        -76 callsubr
        endchar
      </CharString>
      <CharString index="109">
        75 -75 207 -68 107 return
      </CharString>
      <CharString index="110">
        196 -118 118 return
      </CharString>
      <CharString index="111">
        58 8 -11 -19 -17 -6 -11 -30 hvcurveto
        return
      </CharString>
      <CharString index="112">
        556 222 hstem
        28 -6 callgsubr
        return
      </CharString>
      <CharString index="113">
        vhcurveto
        -302 return
      </CharString>
      <CharString index="114">
        -463 -140 -21 182 -21 return
      </CharString>
      <CharString index="115">
        -209 90 -21 507 -20 hstem
        return
      </CharString>
      <CharString index="116">
        -33 callgsubr
        -43 callsubr
        hstem
        return
      </CharString>
      <CharString index="117">
        63 -43 31 -58 vhcurveto
        return
      </CharString>
      <CharString index="118">
        164 -164 return
      </CharString>
      <CharString index="119">
        167 hstemhm
        return
      </CharString>
      <CharString index="120">
        hlineto
        -169 return
      </CharString>
      <CharString index="121">
        476 rmoveto
        return
      </CharString>
</ttFont>
